<?xml version="1.0" encoding="UTF-8"?>
<svg id="Layer_2" data-name="Layer 2" xmlns="http://www.w3.org/2000/svg" xmlns:xlink="http://www.w3.org/1999/xlink" viewBox="0 0 209.08 195.27">
  <defs>
    <style>
      .cls-1 {
        fill: #fff;
      }

      .cls-2 {
        fill: #b2b2b2;
      }

      .cls-3 {
        filter: url(#drop-shadow-1);
      }

      .cls-4 {
        fill: #922123;
      }
    </style>
    <filter id="drop-shadow-1" filterUnits="userSpaceOnUse">
      <feOffset dx="8" dy="8"/>
      <feGaussianBlur result="blur" stdDeviation="9.14"/>
      <feFlood flood-color="#000" flood-opacity=".25"/>
      <feComposite in2="blur" operator="in"/>
      <feComposite in="SourceGraphic"/>
    </filter>
  </defs>
  <g id="Layer_3" data-name="Layer 3">
    <g class="cls-3">
      <path class="cls-1" d="m144.53,95.75c0,1.85-.15,3.67-.43,5.45l8.91,1.34c.03-.64-.18-1.28-.64-1.77l-2.44-2.64c-1.25-1.36-1.25-3.41,0-4.77l2.44-2.64c.45-.49.67-1.12.64-1.77l-8.91,1.34c.28,1.78.43,3.6.43,5.45Z"/>
      <path class="cls-1" d="m144.01,89.76l8.91-1.34c-.18-.62-.59-1.16-1.18-1.49l-3.18-1.8c-1.63-.92-2.3-2.87-1.55-4.53l1.46-3.23c.27-.6.27-1.26.03-1.87l-8.05,3.9c1.7,3.22,2.91,6.7,3.55,10.36Z"/>
      <path class="cls-1" d="m133.05,69.7l6.39-6.09c-.53-.4-1.19-.61-1.88-.55l-3.68.32c-1.9.17-3.63-1.04-4.05-2.8l-.81-3.43c-.15-.64-.56-1.17-1.13-1.53l-4.1,7.66c3.42,1.7,6.54,3.86,9.26,6.41Z"/>
      <path class="cls-1" d="m106.09,59.16c1.95,0,3.86.14,5.73.41l1.41-8.48c-.68-.03-1.34.17-1.86.61l-2.78,2.32c-1.43,1.19-3.58,1.19-5.01,0l-2.78-2.32c-.52-.43-1.18-.64-1.86-.61l1.41,8.48c1.87-.27,3.78-.41,5.73-.41Z"/>
      <path class="cls-1" d="m140.19,78.9l8.05-3.9c-.37-.54-.94-.93-1.61-1.07l-3.6-.78c-1.85-.4-3.12-2.06-2.94-3.86l.34-3.5c.06-.65-.15-1.28-.58-1.79l-6.39,6.09c2.68,2.59,4.95,5.56,6.74,8.81Z"/>
      <path class="cls-1" d="m123.27,63.03l4.1-7.66c-.63-.23-1.33-.23-1.96.03l-3.39,1.39c-1.75.71-3.79.08-4.76-1.47l-1.89-3.02c-.35-.56-.92-.95-1.57-1.12l-1.41,8.49c3.85.61,7.51,1.76,10.89,3.38Z"/>
      <path class="cls-1" d="m140.46,112.12l8.05,3.9c.24-.6.24-1.27-.03-1.87l-1.46-3.23c-.75-1.66-.09-3.61,1.55-4.53l3.18-1.8c.59-.33,1-.87,1.18-1.49l-8.91-1.34c-.64,3.67-1.85,7.15-3.55,10.36Z"/>
      <path class="cls-1" d="m123.79,128.22l4.1,7.66c.57-.35.98-.89,1.13-1.53l.81-3.43c.42-1.76,2.15-2.97,4.05-2.8l3.68.32c.69.06,1.35-.15,1.88-.55l-6.4-6.09c-2.72,2.55-5.84,4.72-9.26,6.41Z"/>
      <path class="cls-1" d="m68.17,101.75l-8.91,1.34c.18.62.59,1.16,1.18,1.49l3.18,1.8c1.63.92,2.3,2.87,1.55,4.53l-1.46,3.23c-.27.6-.27,1.26-.03,1.87l8.05-3.9c-1.7-3.22-2.91-6.7-3.55-10.36Z"/>
      <path class="cls-1" d="m71.98,112.61l-8.05,3.9c.37.54.94.93,1.61,1.07l3.6.78c1.85.4,3.12,2.06,2.94,3.86l-.34,3.5c-.06.65.15,1.28.58,1.79l6.4-6.09c-2.68-2.59-4.95-5.56-6.74-8.81Z"/>
      <path class="cls-1" d="m67.64,95.75c0-1.85.15-3.67.43-5.45l-8.91-1.34c-.03.64.18,1.28.64,1.77l2.44,2.64c1.25,1.36,1.25,3.41,0,4.77l-2.44,2.64c-.45.49-.67,1.12-.64,1.77l8.91-1.34c-.28-1.78-.43-3.6-.43-5.45Z"/>
      <path class="cls-1" d="m71.72,79.39l-8.05-3.9c-.24.6-.24,1.27.03,1.87l1.46,3.23c.75,1.66.08,3.61-1.55,4.53l-3.18,1.8c-.59.33-1,.87-1.18,1.49l8.91,1.34c.64-3.67,1.85-7.15,3.55-10.36Z"/>
      <path class="cls-1" d="m79.13,121.81l-6.4,6.09c.53.4,1.19.61,1.88.55l3.68-.32c1.89-.17,3.63,1.04,4.05,2.8l.81,3.43c.15.64.56,1.17,1.13,1.53l4.1-7.66c-3.42-1.7-6.54-3.86-9.26-6.41Z"/>
      <path class="cls-1" d="m106.09,132.35c-1.95,0-3.86-.14-5.73-.41l-1.41,8.48c.68.03,1.34-.17,1.86-.61l2.78-2.32c1.43-1.19,3.58-1.19,5.01,0l2.78,2.32c.52.43,1.18.63,1.86.61l-1.41-8.48c-1.87.27-3.78.41-5.73.41Z"/>
      <path class="cls-1" d="m88.9,128.48l-4.1,7.66c.63.23,1.33.23,1.96-.03l3.39-1.39c.48-.2.99-.29,1.49-.29,1.31,0,2.57.64,3.27,1.77l1.89,3.02c.35.56.92.95,1.57,1.12l1.41-8.49c-3.85-.61-7.51-1.76-10.89-3.38Z"/>
      <path class="cls-1" d="m88.9,63.03c3.38-1.61,7.04-2.77,10.89-3.38l-1.41-8.49c-.65.17-1.22.56-1.57,1.12l-1.89,3.02c-.97,1.55-3.02,2.19-4.76,1.47l-3.39-1.39c-.63-.26-1.33-.26-1.96-.03l4.1,7.66Z"/>
      <path class="cls-1" d="m112.39,131.85l1.41,8.49c.65-.17,1.22-.56,1.57-1.12l1.89-3.02c.97-1.55,3.02-2.19,4.76-1.47l3.39,1.39c.63.26,1.33.26,1.96.03l-4.1-7.66c-3.38,1.61-7.04,2.77-10.89,3.38Z"/>
      <path class="cls-1" d="m133.46,121.42l6.4,6.09c.42-.5.64-1.13.58-1.79l-.34-3.5c-.17-1.8,1.09-3.46,2.94-3.86l3.6-.78c.67-.14,1.23-.54,1.61-1.07l-8.05-3.9c-1.78,3.25-4.06,6.22-6.74,8.81Z"/>
      <path class="cls-1" d="m22.8,71.59l-1.15.12c-.11.01-.19.05-.24.11-.05.06-.1.16-.15.3-.12-.07-.27-.13-.45-.18-.27-.07-.5-.1-.69-.07l-1.59.18,3.37,2.54.91-3Z"/>
      <path class="cls-1" d="m160.87,34.56l.35-1.05c.03-.1.03-.19,0-.25-.04-.07-.11-.15-.23-.26.12-.07.23-.18.36-.32.18-.2.3-.39.35-.57l.48-1.45-3.82,1.87,2.5,2.02Z"/>
      <path class="cls-1" d="m131.02,173.44c-.99-.44-2.17-.48-3.52-.12l-2.86.76.97,3.32.23.79.92,3.14,2.86-.76c1.37-.36,2.36-.98,2.96-1.84.61-.86.75-1.85.42-2.96-.33-1.11-.98-1.89-1.98-2.33Z"/>
      <path class="cls-1" d="m172.99,157.45c-1.93,1.77-3.93,3.45-5.48,4.66-1.54,1.21-2.6,1.98-2.6,1.98,0,0,.99-.85,2.41-2.19,1.42-1.33,3.26-3.16,4.99-5.07,1.74-1.91,3.37-3.89,4.55-5.41.58-.74,1.05-1.37,1.38-1.82l-2.15-1.52c-.36.41-.87.97-1.49,1.64-1.28,1.38-3.04,3.15-4.89,4.84-1.85,1.69-3.77,3.29-5.25,4.45-1.48,1.16-2.5,1.89-2.5,1.89,0,0,.94-.82,2.3-2.09,1.36-1.27,3.11-3.03,4.77-4.85,1.66-1.83,3.22-3.72,4.34-5.18.54-.7.97-1.28,1.29-1.71l-1.98-1.41c-.34.38-.82.91-1.4,1.53-1.22,1.31-2.9,2.99-4.66,4.6-1.76,1.6-3.6,3.13-5.01,4.22-1.41,1.1-2.38,1.79-2.38,1.79,0,0,.9-.78,2.18-2,1.29-1.21,2.95-2.89,4.53-4.63,1.57-1.74,3.05-3.55,4.11-4.93.5-.65.9-1.19,1.2-1.59l-1.82-1.29c-.33.36-.78.86-1.34,1.45-1.16,1.24-2.77,2.83-4.44,4.35-1.68,1.52-3.42,2.96-4.77,3.99-1.34,1.04-2.26,1.69-2.26,1.69,0,0,.85-.74,2.07-1.9,1.22-1.16,2.8-2.75,4.28-4.4,1.49-1.65,2.89-3.37,3.89-4.69.47-.61.85-1.13,1.13-1.51l-1.67-1.18c-.31.34-.72.79-1.22,1.31-1.11,1.18-2.65,2.7-4.25,4.15-1.6,1.45-3.27,2.82-4.56,3.8-1.28.99-2.16,1.61-2.16,1.61,0,0,.81-.71,1.97-1.82,1.16-1.11,2.66-2.63,4.07-4.21,1.42-1.58,2.75-3.22,3.7-4.48.42-.55.76-1.02,1.02-1.38l-1.49-1.06c-12.76,15.7-31.31,25.38-51.79,27.2-.02,0-.03,0-.05,0-1.1.1-2.2.17-3.3.22-.17,0-.33.01-.5.02-1.08.04-2.16.07-3.25.07s-2.17-.03-3.25-.07c-.17,0-.33-.01-.5-.02-1.11-.05-2.21-.13-3.3-.22-.02,0-.03,0-.05,0-20.48-1.82-39.03-11.49-51.79-27.2l-1.49,1.06c.26.36.61.83,1.02,1.38.95,1.26,2.29,2.9,3.7,4.48,1.42,1.58,2.91,3.1,4.07,4.21,1.16,1.11,1.97,1.82,1.97,1.82,0,0-.88-.62-2.16-1.61-1.29-.98-2.95-2.35-4.56-3.8-1.6-1.45-3.14-2.97-4.25-4.15-.5-.53-.91-.97-1.22-1.31l-1.67,1.18c.28.38.66.9,1.13,1.51,1,1.32,2.4,3.03,3.89,4.69,1.49,1.65,3.06,3.25,4.28,4.4,1.22,1.16,2.07,1.9,2.07,1.9,0,0-.92-.65-2.26-1.69-1.34-1.03-3.09-2.47-4.77-3.99-1.68-1.52-3.28-3.12-4.44-4.35-.55-.59-1.01-1.08-1.34-1.45l-1.82,1.29c.3.4.7.95,1.2,1.59,1.06,1.39,2.54,3.19,4.11,4.93,1.57,1.74,3.23,3.41,4.53,4.63,1.29,1.22,2.18,2,2.18,2,0,0-.97-.69-2.38-1.79-1.41-1.09-3.25-2.62-5.01-4.22-1.76-1.6-3.44-3.29-4.66-4.6-.58-.62-1.05-1.14-1.4-1.53l-1.98,1.41c.31.43.75,1.01,1.29,1.71,1.12,1.46,2.68,3.35,4.34,5.18,1.66,1.83,3.41,3.58,4.77,4.85,1.36,1.28,2.3,2.09,2.3,2.09,0,0-1.02-.73-2.5-1.89-1.48-1.15-3.41-2.76-5.25-4.45-1.85-1.69-3.61-3.47-4.89-4.84-.62-.67-1.13-1.23-1.49-1.64l-.25.18h0s-1.9,1.35-1.9,1.35c.33.45.8,1.07,1.38,1.82,1.17,1.52,2.81,3.5,4.55,5.41,1.74,1.91,3.57,3.74,4.99,5.07,1.42,1.33,2.41,2.19,2.41,2.19,0,0-1.06-.77-2.6-1.98-1.55-1.21-3.55-2.89-5.48-4.66-1.92-1.77-3.77-3.63-5.1-5.07-.66-.71-1.21-1.32-1.58-1.75l-2.32,1.65c.35.48.87,1.16,1.5,1.97,1.25,1.61,2.99,3.7,4.84,5.72,1.85,2.02,3.8,3.95,5.32,5.36,1.51,1.41,2.56,2.31,2.56,2.31,0,0-1.12-.81-2.76-2.1-1.64-1.28-3.76-3.07-5.8-4.95-2.04-1.88-3.98-3.86-5.39-5.39-.72-.78-1.31-1.44-1.71-1.9l-2.62,1.86c12.26,15.23,28.44,26.39,46.72,32.62,10.97,3.74,22.7,5.7,34.79,5.7,32.25,0,61.9-13.95,81.52-38.32l-2.62-1.86c-.4.46-.99,1.11-1.71,1.9-1.41,1.53-3.35,3.51-5.39,5.39-2.04,1.88-4.16,3.67-5.8,4.95-1.63,1.29-2.76,2.1-2.76,2.1,0,0,1.05-.9,2.56-2.31,1.52-1.4,3.47-3.34,5.32-5.36,1.85-2.02,3.59-4.11,4.84-5.72.63-.81,1.15-1.49,1.5-1.97l-2.32-1.65c-.38.43-.92,1.03-1.58,1.75-1.33,1.44-3.17,3.3-5.1,5.07Zm-78.66,32.5c-.3-.98-1.03-1.58-2.17-1.8-.34-.07-.88-.11-1.63-.13-.75-.02-1.29-.06-1.61-.13-.25-.05-.46-.13-.63-.24-.17-.11-.29-.22-.36-.32-.07-.11-.12-.23-.14-.37-.03-.14-.03-.25-.03-.32,0-.08.02-.15.04-.22.03-.15.13-.34.28-.59.15-.25.25-.46.29-.64.05-.21.05-.44.01-.69l-.1-.68-6.99-1.37-.48.63c-.12.16-.2.36-.25.58-.07.3-.06.61.03.91.09.3.25.54.48.72-2.16-.43-3.88-.55-5.15-.38-1.27.17-2.23.65-2.89,1.42l-.15-.09,4.96-6.52c.37-.49.59-.9.66-1.23.08-.37-.02-.8-.3-1.28.5.1.9.09,1.21-.01.31-.11.58-.31.81-.61l3.38-4.45c.22-.29.36-.58.43-.88.09-.41.04-.8-.14-1.18-.19-.38-.46-.7-.84-.96.37.09,1.05.32,2.03.68.99.37,1.79.61,2.41.73l.94.18c.32.06.58.02.8-.14.22-.15.36-.39.43-.72l.07-.02,2.11,9.03c.09.36.25.65.48.87.23.21.6.37,1.1.47-.45.33-.71.68-.8,1.06-.07.33-.04.79.1,1.38l1.69,7.24-.11.04Zm18.48-2.24c-.46.01-.89.07-1.3.18-.41.11-.76.23-1.05.37-.29.14-.57.29-.84.43-.27.14-.56.27-.87.37-.06.02-.12.03-.19.05,1.41-1.18,1.39-2.18,1.21-2.72-.02-.05-.04-.1-.06-.15-.08-.19-.17-.29-.17-.29l-6.37-6.82.21,7.27c0,.29.02.53.03.72.01.19.04.4.09.64.04.24.1.44.17.6.07.16.18.33.31.49.13.17.3.31.49.43l-.05.1c-1.41-.93-3.13-1.36-5.16-1.31l-1.76.05c.49-.24.86-.59,1.08-1.07.23-.48.34-.97.32-1.48l-.07-2.38c-.01-.51-.12-.99-.32-1.43-.2-.44-.45-.77-.75-.98.21,0,.36-.02.46-.04.1-.02.2-.07.29-.14.09-.08.15-.19.18-.34.03-.15.03-.36.03-.64l-.14-4.7c-.01-.5-.15-.98-.41-1.46-.26-.48-.64-.81-1.14-1.01l5.7-.15,8.06,8.67-.18-6.36c-.01-.5-.15-.98-.41-1.46-.26-.48-.64-.81-1.14-1.01l7.41-.19c-.49.24-.86.59-1.09,1.07-.23.48-.34.97-.32,1.48l.14,4.7c0,.27.03.48.06.63.03.15.1.26.2.33.1.07.2.11.3.13.1.01.26.02.47.01-.29.23-.51.57-.69,1.02-.17.45-.25.94-.24,1.45l.07,2.38c0,.27.03.5.05.7.03.2.08.43.15.69.08.25.2.47.37.66.17.19.39.33.64.43l-3.79.1Zm25.47-11.87c-.13.33-.19.68-.19,1.05-.04,1.76-.69,3.32-1.95,4.67-1.26,1.35-3,2.32-5.21,2.9l-9.21,2.44c.42-.34.68-.77.78-1.29.1-.52.08-1.02-.06-1.51l-.67-2.3c-.14-.49-.37-.93-.68-1.32-.31-.39-.63-.65-.97-.78.2-.05.35-.1.44-.14.09-.04.18-.11.25-.2.07-.09.1-.22.09-.37-.01-.15-.06-.36-.14-.62l-1.19-4.08c-.18-.6-.51-1.13-1.02-1.6-.51-.47-1.08-.72-1.73-.77l9.68-2.56c1.34-.36,2.63-.5,3.86-.43,1.23.07,2.33.33,3.31.77.97.45,1.82,1.08,2.53,1.91.71.82,1.23,1.8,1.56,2.91.08.27.13.46.16.59.23-.16.54-.29.93-.39-.25.43-.44.8-.57,1.13Z"/>
      <path class="cls-2" d="m189.19,108.82c-.63,2.64-1.43,5.22-1.43,5.22,0,0,.34-2.67.5-5.35.14-2.16.17-4.31.17-5.06l-2.86-.24c-.14.72-.53,2.74-1.02,4.73-.6,2.48-1.37,4.91-1.37,4.91,0,0,.3-2.52.44-5.04.12-2.02.14-4.03.14-4.75l-2.69-.22c-.18.94-.5,2.56-.9,4.17-.59,2.47-1.35,4.89-1.35,4.89,0,0,.3-2.51.42-5.01.09-1.63.11-3.25.11-4.19l-2.62-.22v-.12s-.28-.22-.28-.22c-.31,2.19-.72,4.35-1.08,5.97-.38,1.7-.68,2.81-.68,2.81,0,0,.19-1.14.39-2.86.21-1.72.4-4.01.48-6.31,0-.1,0-.19.01-.29l-2.81-2.18c-.08.71-.18,1.43-.3,2.15-.31,2.19-.72,4.38-1.09,6-.36,1.62-.65,2.69-.65,2.69,0,0,.18-1.09.37-2.73.19-1.64.37-3.83.44-6.04.05-1.01.07-2.01.07-2.97l-2.44-1.89c-.14,1.59-.32,3.18-.57,4.75h0c-.39,2.72-.93,5.41-1.63,8.05.4-2.69.64-5.4.72-8.1h0,0s0-.03,0-.04c.08-1.94.08-3.88,0-5.81l-1.65-1.28h-.22c-.22,16.53-6.49,32.45-17.75,45.02l4.4-.74c.29-.33.75-.86,1.3-1.52.97-1.16,2.21-2.75,3.38-4.39,1.17-1.64,2.26-3.34,3.03-4.64.78-1.3,1.26-2.18,1.26-2.18,0,0-.38.93-1,2.31-.62,1.38-1.51,3.19-2.49,4.97-.98,1.78-2.04,3.52-2.89,4.8-.06.09-.11.16-.16.25l2.71-.46c.38-.47,2.13-2.62,3.76-4.86.92-1.27,1.8-2.56,2.43-3.55.63-.99,1.02-1.67,1.02-1.67,0,0-.28.73-.76,1.8-.47,1.07-1.16,2.49-1.89,3.88-.78,1.5-1.61,2.97-2.22,4.01l2.94-.49.13-.17.26.18c.11-.14.23-.29.36-.46.56-.73,1.3-1.73,2.01-2.74,1.43-2.02,2.72-4.14,2.72-4.14,0,0-.86,2.31-1.89,4.57-.51,1.13-1.05,2.25-1.48,3.09-.13.25-.24.47-.34.66l2.05,1.46c.11-.14.23-.3.36-.47.6-.78,1.38-1.84,2.14-2.92,1.52-2.15,2.88-4.41,2.88-4.41,0,0-.94,2.45-2.06,4.84-.56,1.2-1.15,2.39-1.6,3.27-.13.25-.25.47-.35.66l2.22,1.58c.14-.17.29-.37.46-.59.63-.82,1.45-1.93,2.24-3.07,1.59-2.26,3.02-4.64,3.02-4.64,0,0-1.01,2.56-2.2,5.07-.59,1.25-1.22,2.49-1.71,3.42-.16.3-.31.57-.43.79l2.39,1.7c.14-.18.3-.39.48-.62.67-.87,1.54-2.05,2.37-3.26,1.68-2.4,3.2-4.92,3.2-4.92,0,0-1.09,2.71-2.38,5.36-.64,1.32-1.32,2.63-1.84,3.61-.17.31-.32.58-.45.81l1.89,1.34c8.79-12.8,14.34-27.53,16.08-42.72l-3.2-.27c-.14.75-.54,2.91-1.06,5.04Z"/>
      <path class="cls-1" d="m136.64,2.89l1.85,3.88c.53.21,1.57.62,2.93,1.2,1.97.83,4.56,2.03,7.07,3.35,2.51,1.31,4.96,2.74,6.74,3.87,1.79,1.12,2.95,1.92,2.95,1.92,0,0-1.22-.7-3.1-1.68-1.87-.98-4.42-2.2-7.01-3.31-2.59-1.1-5.24-2.08-7.24-2.75-.48-.16-.91-.3-1.31-.43l1.83,3.84.06-.13s3.77,1.74,7.32,3.81c3.57,2.04,6.9,4.39,6.9,4.39,0,0-3.59-1.98-7.34-3.6-2.21-.98-4.46-1.83-5.93-2.37l1.65,3.45-.23.15c1.09.6,2.56,1.43,3.99,2.32,2.79,1.7,5.41,3.61,5.41,3.61,0,0-2.88-1.53-5.86-2.83-2-.89-4.03-1.66-5.15-2.07l-2.49,1.59c1.27.64,3.2,1.64,5.06,2.75,3.19,1.85,6.15,3.98,6.15,3.98,0,0-3.23-1.75-6.59-3.19-2.6-1.14-5.25-2.08-6.33-2.44l-2.31,1.47c1.47.67,3.65,1.71,5.76,2.9,3.65,1.99,7.02,4.36,7.02,4.36,0,0-3.63-1.99-7.44-3.56-2.85-1.21-5.79-2.18-7.07-2.58l-2.15,1.37c.32.13.67.28,1.06.44,1.62.69,3.75,1.67,5.81,2.76,2.06,1.09,4.06,2.27,5.52,3.21,1.46.93,2.41,1.59,2.41,1.59,0,0-1.01-.57-2.56-1.35-1.55-.79-3.65-1.77-5.79-2.64-2.14-.87-4.32-1.64-5.98-2.16-1.02-.32-1.82-.56-2.3-.69l-1.91,1.22c17.59,5.56,31.93,17,40.86,31.63.27.44.52.88.78,1.33.17.3.35.6.52.9.41.72.79,1.45,1.17,2.18.01.02.02.05.04.07,4.62,8.94,7.17,18.71,7.51,28.85l.03.79h-.01c.01.5.03,1,.03,1.51,0,1.72-.07,3.5-.21,5.29l1.81.15c.05-.45.11-1.11.19-1.92.08-.76.17-1.66.26-2.61.02-.24.05-.48.07-.73l.02-.18v-.16s.03-.38.03-.38c.02-.5.04-1.01.06-1.52.14-4.07-.24-8.16-.24-8.16,0,0,.85,4.02,1.18,8.14.04.51.08,1.03.12,1.54l.02.38v.21s.01.19.01.19c0,.25,0,.49.01.73.01.96.03,1.86.04,2.62.01.87.02,1.56.03,2.01l2.04.17c.05-.46.11-1.07.18-1.8.08-.82.18-1.77.28-2.79.04-.5.12-1.06.14-1.55.02-.54.04-1.08.06-1.62.15-4.36-.28-8.73-.28-8.73,0,0,.89,4.3,1.22,8.71.04.55.08,1.1.11,1.64.04.59.02,1.08.03,1.61,0,1.03.02,1.99.02,2.81,0,.77.01,1.41.02,1.88l2.26.19c.05-.5.12-1.22.2-2.09.08-.85.18-1.84.28-2.91.03-.27.05-.54.08-.81l.03-.39.02-.42c.02-.56.04-1.12.06-1.69.14-4.53-.32-9.07-.32-9.07,0,0,.92,4.48,1.25,9.05.04.57.08,1.14.12,1.71l.02.42v.44c0,.27.01.55.01.81,0,1.07.02,2.06.02,2.92,0,.92.01,1.67.02,2.17l2.36.2c.07-.52.17-1.28.29-2.2.23-1.78.44-4.13.48-6.52.13-4.77-.36-9.56-.36-9.56,0,0,.96,4.72,1.29,9.53.2,2.4.22,4.84.16,6.65-.03.95-.06,1.72-.07,2.25l2.73.23c.05-.55.12-1.31.2-2.23.09-.95.19-2.05.3-3.24.04-.58.13-1.23.14-1.8.02-.62.04-1.25.06-1.88.05-2.52-.03-5.05-.15-6.95-.12-1.9-.25-3.16-.25-3.16,0,0,.25,1.24.55,3.13.3,1.88.61,4.41.79,6.95.04.64.08,1.27.12,1.9.04.67.01,1.25.02,1.86,0,1.19,0,2.3,0,3.25,0,.96,0,1.76,0,2.31l2.92.24c.07-.57.17-1.4.27-2.39.2-1.97.37-4.61.42-7.26.05-2.65-.04-5.3-.17-7.29-.13-1.99-.27-3.31-.27-3.31,0,0,.26,1.31.57,3.29.31,1.98.63,4.63.82,7.3.19,2.67.25,5.35.22,7.36-.01,1.03-.03,1.88-.06,2.46l3.25.27c.21-2.57.32-5.13.32-7.63,0-42.58-28.27-79.65-70.56-92.86Zm55.48,61.42c.5.7.91,1.5,1.23,2.38.27.76.44,1.48.52,2.16.03.05.08.07.15.04.09-.03.18-.1.26-.2-.01.25-.08.65-.2,1.2-.12.55-.19.89-.2,1.02-.02.14-.04.35-.08.63-.03.28-.06.48-.07.59-.01.11-.02.25-.03.43,0,.17,0,.31,0,.42.01.11.03.2.07.29.06.17.17.31.34.41l-.12.2c-.74-.41-1.3-.7-1.68-.87-.38-.17-.67-.27-.87-.29,0,0-.12-.02-.31,0,0,0,0,0-.01,0-.09.01-.19.03-.3.07,0,0-.02,0-.03,0,0,0,0,0-.02,0-.14.05-.3.13-.46.24-.05.03-.09.07-.14.11-.24.2-.47.51-.67.94,0-.04,0-.07,0-.11.02-.29.08-.57.19-.83.1-.27.22-.54.36-.83.13-.29.26-.6.38-.94.12-.34.21-.7.27-1.07.06-.38.07-.81.02-1.32-.05-.5-.18-1.03-.37-1.58-.22-.63-.49-1.13-.81-1.5-.32-.38-.6-.53-.83-.46-.22.07-.35.37-.39.89-.04.53.04,1.3.25,2.34.89,4.41.13,7-2.26,7.77-.56.18-1.15.2-1.78.06-.63-.14-1.24-.42-1.83-.84-.59-.42-1.15-1-1.68-1.74-.53-.74-.96-1.58-1.29-2.53-.29-.83-.49-1.63-.59-2.4-.1-.77-.13-1.43-.07-1.99.05-.55.13-1.05.22-1.49.1-.44.18-.84.26-1.19.08-.35.1-.61.07-.79l3.81,2.16c-.34.17-.59.43-.78.78-.18.35-.28.76-.3,1.21-.02.45.01.91.09,1.39.08.48.2.95.37,1.42.26.74.59,1.35.99,1.83.4.47.74.67,1.01.58.15-.05.26-.18.34-.4.08-.22.1-.58.07-1.08-.03-.5-.12-1.12-.29-1.86-.21-.96-.33-1.85-.36-2.69-.03-.84.04-1.6.2-2.28.16-.68.43-1.26.81-1.73.38-.47.86-.8,1.43-.98.54-.17,1.11-.19,1.72-.04.61.14,1.2.42,1.77.82.57.4,1.11.96,1.61,1.66Zm-9.84-17.57c.26-.52.34-1.06.24-1.61.43,1.09,1.14,2.49,2.14,4.19l4.77,8.11-4.02,2.14c.18-.53.24-1.03.2-1.5-.05-.47-.21-.94-.49-1.41l-2.81-4.78-1.84.98,2.88,4.9-2.94,1.57-2.88-4.9-1.59.85,2.67,4.55c.29.49.71.92,1.26,1.27.55.35,1.14.57,1.76.65-.52.15-1.05.37-1.58.66-.58.31-1.3.78-2.15,1.41-.63.46-1.1.79-1.41.99.21-.67.25-1.15.21-1.45,0,0,0,0,0-.01-.05-.39-.2-.54-.2-.54l-6.17-10.49c.38.26.81.38,1.28.36.47-.02.9-.14,1.3-.35l1.86-.99c.4-.21.74-.48,1.01-.8.27-.32.44-.63.49-.92.09.15.16.25.21.32.05.07.13.12.23.15.1.04.21.04.34,0,.13-.04.3-.12.51-.23l3.55-1.89c.51-.28.9-.67,1.17-1.19Zm-7.47-7.55h0s-6.64,5.19-6.64,5.19l2.97,3.45c.23.27.47.5.7.69h0s.19.21.58.38c.02,0,.04.02.05.03.03.02.07.02.1.03.07.03.15.05.23.07.08.02.15.06.23.07.09.01.15,0,.23,0,.34.03.75.01,1.22-.1-.5.38-1.29.9-2.38,1.57-1.16.71-2,1.27-2.53,1.68-.28-.83-.75-1.63-1.41-2.39l-5.81-6.74-.45,1.49h-.1c.19-.86-.09-1.59-.84-2.2-.22-.18-.61-.42-1.16-.73-.55-.31-.93-.55-1.15-.72-.17-.14-.29-.28-.37-.42-.08-.15-.12-.27-.13-.38,0-.11.01-.22.05-.33.04-.11.08-.2.12-.25.04-.05.08-.1.12-.15.09-.1.24-.21.46-.33.22-.12.38-.25.49-.37.13-.14.23-.31.31-.51l.22-.54-4.63-3.75-.63.28c-.16.08-.31.19-.44.34-.18.2-.3.43-.37.69-.07.26-.05.5.05.73-1.43-1.16-2.66-1.92-3.68-2.28-1.02-.36-1.95-.38-2.77-.06l-.07-.13,6.5-2.94c.49-.22.83-.44,1.02-.66.22-.25.33-.6.33-1.07.33.27.63.42.91.46.28.04.56,0,.87-.14l4.44-2.01c.29-.13.52-.29.69-.49.24-.27.38-.58.4-.94.02-.35-.05-.7-.21-1.04.24.21.65.64,1.23,1.3.58.66,1.08,1.16,1.49,1.49l.62.5c.21.17.43.24.66.21.23-.03.44-.15.63-.37h.06s-2.3,7.59-2.3,7.59c-.09.31-.09.59-.01.84.08.25.29.51.62.78-.47.07-.82.23-1.05.48-.19.22-.37.57-.52,1.07l-1.27,4.18c.23.03.47.02.71-.03.46-.1.86-.29,1.21-.56l1.65-1.29c.36-.28.64-.6.85-.95.21-.36.31-.69.31-.99.11.13.2.22.27.28.07.06.15.09.25.11.1.02.21,0,.34-.06.12-.06.28-.17.46-.31l3.26-2.54c.34-.27.62-.61.82-1.03.2-.42.24-.84.12-1.26l2.54,2.95c.28.33.74.7,1.38,1.12.42.27.73.51.97.71-1.79-.64-2.81.34-2.81.34Z"/>
      <path class="cls-1" d="m16.06,83.91s-.49,4.78-.36,9.56c.03,2.39.24,4.74.48,6.52.12.92.22,1.68.29,2.2l2.36-.2c0-.5,0-1.25.02-2.17,0-.85.01-1.85.02-2.92,0-.27,0-.54,0-.81v-.44s.03-.42.03-.42c.04-.56.08-1.13.12-1.71.33-4.57,1.25-9.05,1.25-9.05,0,0-.45,4.54-.32,9.07.02.57.04,1.13.06,1.69l.02.42.03.39c.03.27.05.54.08.81.1,1.06.2,2.06.28,2.91.08.87.15,1.59.2,2.09l2.26-.19c0-.47,0-1.11.02-1.88,0-.82.01-1.78.02-2.81.01-.52,0-1.02.03-1.61.04-.54.08-1.09.11-1.64.33-4.4,1.22-8.71,1.22-8.71,0,0-.43,4.37-.28,8.73.02.54.04,1.09.06,1.62.01.49.09,1.05.14,1.55.1,1.02.2,1.98.28,2.79.07.73.13,1.34.18,1.8l2.04-.17c0-.45.02-1.14.03-2.01.01-.77.02-1.66.04-2.62,0-.24,0-.48.01-.73v-.19s.01-.21.01-.21l.02-.38c.04-.51.08-1.02.12-1.54.33-4.11,1.18-8.14,1.18-8.14,0,0-.39,4.09-.24,8.16.02.51.04,1.02.06,1.52l.02.38v.16s.03.18.03.18c.02.25.05.49.07.73.1.96.19,1.85.26,2.61.08.81.15,1.48.19,1.92l1.81-.15c-.14-1.78-.21-3.56-.21-5.29,0-.5.02-1.01.03-1.51h-.01l.03-.79c.34-10.13,2.89-19.89,7.5-28.83.02-.04.05-.09.07-.13.37-.71.74-1.42,1.14-2.11.19-.34.39-.66.58-1,.24-.41.48-.82.72-1.23,8.93-14.64,23.27-26.08,40.87-31.64l-1.91-1.22c-.47.14-1.28.37-2.3.69-1.65.52-3.83,1.28-5.98,2.16-2.14.87-4.24,1.85-5.79,2.64-1.55.78-2.56,1.35-2.56,1.35,0,0,.94-.66,2.41-1.59,1.46-.94,3.46-2.12,5.52-3.21,2.06-1.09,4.19-2.07,5.81-2.76.39-.16.74-.31,1.06-.44l-2.15-1.37c-1.28.41-4.22,1.37-7.07,2.58-3.82,1.57-7.44,3.56-7.44,3.56,0,0,3.37-2.36,7.02-4.36,2.11-1.18,4.3-2.23,5.76-2.9l-2.31-1.47c-1.07.37-3.73,1.31-6.33,2.44-3.37,1.44-6.59,3.19-6.59,3.19,0,0,2.97-2.12,6.15-3.98,1.86-1.1,3.78-2.11,5.06-2.75l-2.49-1.59c-1.12.41-3.16,1.19-5.15,2.07-2.98,1.29-5.86,2.83-5.86,2.83,0,0,2.62-1.9,5.41-3.61,1.43-.89,2.9-1.72,3.99-2.32l-.23-.15,1.65-3.45c-1.48.53-3.72,1.39-5.93,2.37-3.75,1.62-7.34,3.6-7.34,3.6,0,0,3.33-2.35,6.9-4.39,3.55-2.07,7.32-3.81,7.32-3.81l.06.13,1.83-3.84c-.39.13-.83.27-1.31.43-2,.67-4.65,1.65-7.24,2.75-2.59,1.1-5.14,2.33-7.01,3.31-1.88.98-3.1,1.68-3.1,1.68,0,0,1.16-.79,2.95-1.92,1.79-1.13,4.23-2.55,6.74-3.87,2.51-1.31,5.1-2.51,7.07-3.35,1.36-.58,2.4-.99,2.93-1.2l1.85-3.88C30.14,16.1,1.87,53.17,1.87,95.75c0,2.49.11,5.06.32,7.63l3.25-.27c-.02-.59-.05-1.44-.06-2.46-.02-2.01.03-4.69.22-7.36.19-2.67.51-5.32.82-7.3.3-1.98.57-3.29.57-3.29,0,0-.14,1.32-.27,3.31-.13,1.99-.22,4.64-.17,7.29.04,2.65.22,5.29.42,7.26.1.99.19,1.82.27,2.39l2.92-.24c0-.56,0-1.35,0-2.31,0-.95,0-2.06,0-3.25.01-.61-.02-1.18.02-1.86.04-.63.08-1.26.12-1.9.18-2.54.5-5.07.79-6.95.29-1.88.55-3.13.55-3.13,0,0-.14,1.26-.25,3.16-.12,1.89-.2,4.42-.15,6.95.02.63.04,1.26.06,1.88.01.57.1,1.22.14,1.8.11,1.18.21,2.29.3,3.24.08.92.15,1.68.2,2.23l2.73-.23c-.02-.53-.04-1.3-.07-2.25-.06-1.8-.04-4.25.16-6.65.34-4.82,1.29-9.53,1.29-9.53Zm23.47-51.59c.17-.66.51-1.34.99-2.05.49-.71,1.1-1.38,1.84-1.99.63-.52,1.26-.95,1.9-1.28.04-.05.03-.1-.01-.15-.06-.07-.16-.12-.29-.15.24-.09.66-.18,1.24-.29.58-.11.93-.18,1.06-.21.14-.04.35-.1.64-.17.29-.08.48-.13.6-.17.11-.03.25-.08.43-.14.17-.06.31-.11.41-.16.1-.05.18-.11.26-.17.14-.12.23-.27.27-.45l.24.03c-.11.8-.18,1.41-.2,1.8,0,.21,0,.38,0,.53h0s0,.12.04.28c0,.02,0,.04,0,.06.04.13.11.26.21.39.01.02.03.04.04.06.03.03.05.07.08.1.02.02.04.04.06.06.01,0,.02.02.03.03.06.06.13.12.2.17.06.04.12.08.19.12,0,0,.01,0,.02,0,.24.14.54.26.94.35-.22.06-.45.1-.68.11-.3.01-.61.01-.95,0-.33,0-.69,0-1.06.03-.37.03-.75.08-1.14.17-.39.09-.82.25-1.28.49-.47.24-.93.55-1.39.94-.52.43-.9.86-1.15,1.29-.24.43-.28.73-.12.9.15.16.49.16,1.01,0,.53-.16,1.25-.54,2.17-1.12,3.94-2.47,6.74-2.8,8.41-.99.39.42.63.94.73,1.54.1.61.06,1.25-.12,1.93-.18.68-.53,1.4-1.04,2.14-.52.75-1.17,1.45-1.96,2.1-.69.57-1.39,1.05-2.1,1.44-.71.39-1.34.66-1.9.82-.56.16-1.07.29-1.54.38-.47.09-.88.16-1.25.23-.37.06-.63.15-.8.24l.64-4.18c.29.23.64.36,1.06.38.41.03.84-.04,1.28-.2.44-.16.88-.36,1.31-.61.43-.25.84-.54,1.23-.86.62-.52,1.08-1.04,1.39-1.57.31-.53.37-.9.17-1.11-.1-.11-.28-.16-.52-.15-.24.02-.6.13-1.08.35-.48.22-1.04.54-1.69.97-.85.55-1.67,1-2.48,1.35-.81.34-1.57.58-2.29.7-.72.12-1.38.1-1.99-.05-.6-.15-1.1-.45-1.5-.88-.37-.41-.61-.9-.7-1.49-.09-.59-.05-1.21.12-1.87Zm-25.92,41.45c-.35.12-.65.33-.91.62.1-.29.35-.83.74-1.6.39-.78.66-1.41.81-1.9l.22-.75c.08-.25.05-.47-.07-.66-.12-.19-.33-.32-.61-.4v-.06s8.18-1.12,8.18-1.12c.33-.05.6-.16.81-.34.21-.17.37-.46.49-.86.26.38.56.62.9.71.29.08.7.08,1.24.01l3.88-.53c-.03-.1-.05-.21-.08-.3-.1-.25-.26-.6-.48-1.06l-1.56-3.37c-.23-.49-.5-.81-.81-.96-.17-.08-.33-.09-.48-.03.3-.55.4-.93.3-1.15l-.15-.31-8.65,1.65,1.3-2.4c.06-.12.1-.23.11-.34,0,0,.14-.51-.31-1.32.31.08.74.08,1.33-.02l4.77-.81-1.38-2.73c-.17-.34-.44-.6-.79-.77-.24-.12-.47-.18-.69-.19.07-.1.19-.25.34-.45.15-.2.26-.34.31-.41.05-.07.13-.19.24-.35.11-.16.21-.32.3-.48.09-.16.2-.36.33-.6.26-.48.57-1.11.94-1.89.37-.78.63-1.32.79-1.61l.12.12c-.14.27-.18.66-.12,1.2.06.53.26,1.16.6,1.87l2.63,5.54.32-.06c.24-.05.51-.35.81-.9.04.15.14.26.31.35.32.15.75.18,1.3.07l6.28-1.26c.08-.4.04-.8-.15-1.17-.2-.4-.48-.74-.84-1.01l-1.68-1.26c-.36-.27-.75-.46-1.16-.58-.41-.12-.78-.14-1.08-.07.11-.13.19-.24.23-.31.04-.07.06-.16.06-.26,0-.1-.05-.2-.14-.3-.09-.1-.23-.22-.42-.36l-3.2-2.4c-.46-.35-1-.54-1.6-.57-.61-.03-1.16.1-1.66.4.89-.79,1.97-1.95,3.24-3.49l6.04-7.3,3.62,2.71c-.59.05-1.1.18-1.53.4-.43.22-.83.54-1.18.97l-3.56,4.3,1.65,1.24,3.65-4.41,2.65,1.98-3.65,4.41,1.43,1.08,3.39-4.09c.37-.44.62-.97.75-1.59.13-.62.11-1.22-.05-1.8.35.4.76.78,1.24,1.13.52.39,1.25.84,2.19,1.36.62.34,1.08.6,1.4.8-.65.09-1.09.26-1.38.43-.02,0-.03.02-.04.03-.32.19-.43.37-.43.37l-7.73,9.34.43-.09.04.11c-.22.07-.43.21-.63.41-.21.21-.37.41-.49.6-.12.19-.27.46-.45.8l-1.94,3.59c0-.34-.18-.61-.56-.79-.26-.13-.5-.17-.74-.14l-3.33.53,1.54,2.97c.15.29.39.52.71.68.24.12.51.18.81.18-.53.7-.9,1.22-1.1,1.56-.14.24-.3.52-.48.85-.24.45-.52.99-.83,1.58l1.7-.23.03.09c-.89.18-1.47.73-1.75,1.63-.08.27-.15.71-.22,1.31-.07.6-.14,1.04-.22,1.3-.06.2-.14.37-.25.5-.11.13-.21.22-.31.27-.1.05-.21.08-.34.09-.13.01-.22.01-.29,0-.07-.01-.13-.03-.2-.04-.13-.04-.3-.12-.51-.26-.21-.14-.39-.23-.56-.28-.19-.05-.39-.07-.61-.06l-.61.04-1.68,5.56.53.43c.14.11.31.19.5.24.27.07.54.08.81.04.28-.05.5-.16.67-.34-.52,1.72-.74,3.1-.67,4.14.07,1.04.44,1.85,1.08,2.43l-.09.11-5.5-4.43c-.42-.33-.77-.54-1.06-.62-.33-.09-.71-.04-1.16.16.12-.4.14-.72.07-.98-.08-.25-.24-.49-.49-.69l-3.75-3.02c-.24-.2-.49-.33-.75-.4-.36-.1-.71-.08-1.06.04Z"/>
      <path class="cls-1" d="m88.38,63.28l-4.1-7.66c-.57.35-.98.89-1.13,1.53l-.81,3.43c-.42,1.76-2.15,2.97-4.05,2.8l-3.68-.32c-.68-.06-1.34.15-1.88.55l6.39,6.09c2.72-2.55,5.84-4.72,9.26-6.41Z"/>
      <path class="cls-1" d="m106.09,131.24c20.56,0,37.28-15.92,37.28-35.49s-16.72-35.49-37.28-35.49-37.28,15.92-37.28,35.49,16.72,35.49,37.28,35.49Zm-26.6-44.85l2.91-2.77c.12-.07.22-.16.29-.27l.79-.75c-.1-.18-.08-.42.09-.57,0,0,.23-.26.62-.66-.16-.12-.4-.11-.55.03l-.16.15c-.1.1-.26.1-.36,0l-.5-.48c-.1-.1-.1-.25,0-.35,0,0,1.15-1.43,3.09-2.94.11-.09.26-.1.36,0l.5.48c.1.1.1.25,0,.35l-.16.15c-.15.14-.16.36-.04.52.23-.2.46-.39.7-.58.18-.14.41-.18.6-.08l.02-.02.04-.02c.62-.36,1.26-.69,1.91-1,.45-.21.97-.48,1.24-.67.06-.04.16-.11.3-.19.24,0,.46-.19.64-.35,0,0,.01-.01.02-.02,1.38-.72,3.92-1.74,6.08-1.18,0,0-.16.12-.42.32-.06.01-.12.03-.17.06-.22.11-.38.3-.55.47-.07.07-.15.15-.22.22-.26.21-.53.43-.8.65-.16.12-.33.24-.5.36-.9.64-1.84,1.38-2.16,2.39-.61.8-1.4,1.88-1.69,2.5l.13.13c.2.19.17.47,0,.69-.05.06-.1.12-.15.18l.32.3c.11.11.14.27.24.55,1.08.99,7.55,6.91,10.32,9.84.13.13.14.33.06.5,1,.89,2.3,2.05,3.76,3.38,1.47-1.33,2.76-2.49,3.76-3.38-.08-.17-.07-.37.06-.5,2.77-2.92,9.24-8.85,10.32-9.84.1-.29.13-.45.24-.55l.32-.3c-.05-.06-.1-.12-.15-.18-.17-.21-.2-.5,0-.69l.13-.13c-.29-.62-1.08-1.7-1.69-2.5-.31-1.02-1.26-1.75-2.16-2.39-.17-.12-.33-.24-.5-.36-.27-.22-.54-.44-.8-.65-.08-.07-.15-.14-.22-.22-.17-.17-.33-.36-.55-.47-.05-.03-.11-.05-.17-.06-.26-.2-.42-.32-.42-.32,2.16-.56,4.69.46,6.08,1.18,0,0,.01.01.02.02.18.17.4.34.64.35.13.08.24.15.3.19.27.19.79.45,1.24.67.65.31,1.29.64,1.91,1l.04.02.02.02c.19-.09.43-.06.6.08.24.19.47.39.7.58.12-.16.11-.38-.04-.52l-.16-.15c-.1-.1-.1-.25,0-.35l.5-.48c.1-.1.25-.09.36,0,1.94,1.51,3.09,2.94,3.09,2.94.1.1.1.25,0,.35l-.5.48c-.1.1-.26.1-.36,0l-.16-.15c-.15-.14-.39-.15-.55-.03.39.4.62.66.62.66.16.16.19.39.09.57l.79.75c.07.11.17.2.29.27l2.91,2.77c-.13.03.61.75.83.79l6.62,6.31c-.08,0-.15.04-.17.11-.01.07.05.14.1.19,0,0,0,0,0,.01-.1.05-.19.1-.29.16-.06.03-.12.07-.19.1-.33.18-.66.36-1.01.48-.05.02-.11.04-.16.07-.06.05-.09.12-.13.19-.01.02-.03.04-.04.06-.35.2-.73.41-1.13.62-.2.08-.4.16-.6.24-.06.02-.13.05-.18.09-.05.04-.08.09-.13.13-.02.02-.04.03-.05.05-.32.16-.64.33-.97.49-.27.12-.54.24-.81.36-.12.05-.25.11-.37.16-.94.41-1.88.83-2.9,1.02-.08.02-.16.03-.24.06-.11.04-.21.11-.32.16-.18.07-.39.07-.58.11.96-2.01.49-4.24-.39-6.17.03-.02-.16-.4-.21-.45-.41-.85-.77-1.39-1.24-2.06-.08-.27-.17-.53-.38-.73-.09-.09-.2-.15-.31-.21-.6-.77-1.08-1.27-1.21-1.4l-1.21-1.16s-.1.08-.15.11c-.22.17-.52.19-.72,0,0,0-.07-.05-.2-.14l-.32.3c-.08.08-.33.17-.33.17,0,0-7.12,7.1-10.48,9.98-.18.15-.67-.04-.67-.04,0,0-1.43,1.37-3.55,3.42.04.04.09.08.13.12.18-.16.43-.19.56-.06,0,0,1.69,1.39,3.56,3.39.1.11.09.28,0,.43,3.88,3.55,7.81,7.17,10.46,9.61.18-.15.35-.22.4-.17,0,0,.89.58,1.69,1.61.04.05-.03.19-.16.35.81.75,1.27,1.18,1.27,1.18.78.74.65,2.08-.29,2.98-.94.9-2.34,1.02-3.13.28-.11-.11-.68-.74-1.08-1.23-.02-.03-.05-.06-.07-.08-.14.09-.25.13-.3.1-1.08-.76-1.62-1.68-1.62-1.68-.05-.05.03-.21.18-.39-.18-.19-.36-.39-.54-.58-2.35-2.43-5.98-6.03-9.49-9.45-.15.07-.3.06-.4-.02-2.09-1.77-3.5-3.44-3.5-3.44-.09-.09-.1-.23-.04-.37-.05-.05-.09-.09-.14-.13-.05.05-.09.09-.14.13.06.14.05.28-.04.37,0,0-1.4,1.67-3.5,3.44-.1.08-.25.09-.4.02-3.51,3.43-7.15,7.02-9.49,9.45-.18.19-.36.38-.54.58.16.18.24.34.18.39,0,0-.54.92-1.62,1.68-.05.03-.16,0-.3-.1-.02.03-.05.06-.07.08-.4.49-.97,1.12-1.08,1.23-.78.74-2.18.62-3.13-.28-.94-.9-1.08-2.23-.29-2.98,0,0,.47-.43,1.27-1.18-.13-.16-.2-.3-.16-.35.8-1.03,1.69-1.61,1.69-1.61.05-.05.22.02.4.17,2.65-2.44,6.58-6.06,10.46-9.61-.1-.15-.1-.32,0-.43,1.86-1.99,3.56-3.39,3.56-3.39.13-.12.37-.09.56.06.04-.04.09-.08.13-.12-2.13-2.05-3.55-3.42-3.55-3.42,0,0-.49.19-.67.04-3.36-2.88-10.48-9.98-10.48-9.98,0,0-.25-.1-.33-.17l-.32-.3c-.13.09-.2.14-.2.14-.2.19-.5.17-.72,0-.05-.04-.1-.08-.15-.11l-1.21,1.16c-.13.12-.61.63-1.21,1.4-.11.05-.22.12-.31.21-.21.2-.3.46-.38.73-.47.68-.83,1.21-1.24,2.06-.06.05-.24.42-.21.45-.89,1.93-1.36,4.16-.39,6.17-.19-.03-.4-.03-.58-.11-.11-.04-.21-.12-.32-.16-.08-.03-.16-.04-.24-.06-1.01-.19-1.96-.61-2.9-1.02-.12-.05-.25-.11-.37-.16-.27-.12-.54-.24-.81-.36-.33-.16-.65-.33-.97-.49-.02-.02-.04-.03-.05-.05-.04-.04-.08-.09-.13-.13-.05-.04-.12-.07-.18-.09-.2-.08-.4-.16-.6-.24-.4-.22-.78-.43-1.13-.62-.01-.02-.03-.04-.04-.06-.04-.07-.07-.14-.13-.19-.04-.04-.1-.05-.16-.07-.36-.12-.69-.3-1.01-.48-.06-.03-.12-.07-.19-.1-.1-.05-.19-.1-.29-.16,0,0,0,0,0-.01.05-.06.11-.12.1-.19-.01-.07-.09-.11-.17-.11l6.62-6.31c.22-.04.96-.76.83-.79Z"/>
      <path class="cls-1" d="m78.72,70.09l-6.39-6.09c-.42.5-.64,1.14-.58,1.79l.34,3.5c.17,1.8-1.09,3.46-2.94,3.86l-3.6.78c-.67.14-1.23.54-1.61,1.07l8.05,3.9c1.78-3.25,4.05-6.22,6.74-8.81Z"/>
      <path class="cls-2" d="m33.6,145.43c-.13-.23-.28-.5-.45-.81-.53-.97-1.2-2.29-1.84-3.61-1.29-2.65-2.38-5.36-2.38-5.36,0,0,1.51,2.52,3.2,4.92.84,1.2,1.71,2.38,2.37,3.26.18.23.34.44.48.62l2.39-1.7c-.12-.22-.26-.49-.43-.79-.49-.92-1.12-2.16-1.71-3.42-1.19-2.5-2.2-5.07-2.2-5.07,0,0,1.43,2.37,3.02,4.64.79,1.13,1.61,2.25,2.24,3.07.17.22.32.41.46.59l2.22-1.58c-.1-.19-.22-.41-.35-.66-.46-.88-1.05-2.07-1.6-3.27-1.12-2.39-2.06-4.84-2.06-4.84,0,0,1.37,2.26,2.88,4.41.75,1.08,1.54,2.14,2.14,2.92.13.17.25.32.36.47l2.05-1.46c-.1-.19-.21-.41-.34-.66-.42-.83-.97-1.96-1.48-3.09-1.03-2.26-1.89-4.57-1.89-4.57,0,0,1.29,2.12,2.72,4.14.71,1.01,1.45,2.01,2.01,2.74.13.17.25.32.36.46l.26-.18.13.17,2.94.49c-.6-1.04-1.43-2.51-2.22-4.01-.73-1.39-1.41-2.81-1.89-3.88-.48-1.07-.76-1.8-.76-1.8,0,0,.39.68,1.02,1.67.63.99,1.51,2.29,2.43,3.55,1.63,2.24,3.38,4.4,3.76,4.86l2.71.46c-.05-.08-.11-.16-.16-.25-.84-1.28-1.91-3.02-2.89-4.8-.98-1.78-1.87-3.59-2.49-4.97-.62-1.38-1-2.31-1-2.31,0,0,.48.89,1.26,2.18.77,1.3,1.86,3,3.03,4.64,1.17,1.64,2.41,3.23,3.38,4.39.55.66,1,1.19,1.3,1.52l4.4.74c-11.25-12.58-17.53-28.49-17.74-45.02h-.22l-1.65,1.28c-.08,1.93-.08,3.87,0,5.81,0,.01,0,.02,0,.03h0s0,.01,0,.01c.08,2.7.32,5.4.72,8.1-.7-2.65-1.24-5.34-1.63-8.05h0c-.24-1.57-.43-3.16-.57-4.75l-2.44,1.89c0,.95.02,1.96.07,2.97.07,2.2.25,4.39.44,6.04.19,1.64.37,2.73.37,2.73,0,0-.29-1.07-.65-2.69-.37-1.62-.78-3.81-1.09-6-.11-.72-.21-1.45-.3-2.15l-2.81,2.18c0,.1,0,.19.01.29.08,2.3.28,4.59.48,6.31.2,1.72.39,2.86.39,2.86,0,0-.3-1.12-.68-2.81-.36-1.62-.77-3.78-1.08-5.97l-.29.22v.12s-2.61.22-2.61.22c0,.94.02,2.56.11,4.19.12,2.51.42,5.01.42,5.01,0,0-.76-2.42-1.35-4.89-.4-1.61-.72-3.23-.9-4.17l-2.69.22c0,.72.01,2.73.14,4.75.13,2.52.44,5.04.44,5.04,0,0-.76-2.43-1.37-4.91-.5-1.99-.89-4.01-1.02-4.73l-2.86.24c0,.75.03,2.9.17,5.06.16,2.67.5,5.35.5,5.35,0,0-.8-2.58-1.43-5.22-.52-2.13-.93-4.28-1.06-5.04l-3.2.27c1.74,15.19,7.29,29.92,16.08,42.72l1.89-1.34Z"/>
      <path class="cls-1" d="m87,178.6c-.08-.05-.21-.1-.39-.14.08-.14.14-.31.18-.52.07-.3.08-.56.03-.78l-.36-1.75-2.82,3.98,3.77.74-.25-1.27c-.02-.12-.08-.21-.15-.26Z"/>
      <path class="cls-4" d="m135.19.58l-1.99-.58,8.43,17.69-15.96,10.17-3.26.86h0s0,0,0,0l3.1.89c28.39,8.15,48.78,32.45,51.31,60.28.07.76.12,1.52.16,2.29,0,.09.01.19.02.28h-13.04v.89c0,16.79-6.41,32.97-18.03,45.57l-.6.65,8.08,7.23c-12.5,10.86-28.42,17.14-45.25,17.94-.18,0-.36.01-.54.02-1.03.04-2.06.07-3.09.07s-2.06-.03-3.09-.07c-.18,0-.36-.01-.54-.02-16.83-.79-32.75-7.08-45.25-17.94l8.08-7.23-.6-.65c-11.63-12.6-18.03-28.78-18.03-45.57v-.89h-13.04c0-.13.02-.26.03-.39.04-.72.09-1.44.15-2.16,2.53-27.83,22.92-52.14,51.31-60.29l3.1-.89h0s0,0,0,0l-3.12-.83-16.11-10.21L75.87,0h0s0,0,0,0l-1.99.58c-20.94,6.11-39.76,18.7-52.98,35.46C7.23,53.37,0,74.01,0,95.75c0,2.83.13,5.75.4,8.67l.08.89,13.27-1.11c1.77,15.52,7.44,30.57,16.45,43.64l-9.81,6.97h0s0,0,0,0l.57.72c19.96,25.26,50.43,39.74,83.58,39.74s63.62-14.49,83.58-39.74l.57-.72h0s0,0,0,0l-9.81-6.97c9-13.07,14.67-28.12,16.45-43.64l13.27,1.11.08-.89c.26-2.92.4-5.84.4-8.67,0-21.73-7.23-42.38-20.9-59.71-13.22-16.76-32.04-29.35-52.98-35.46ZM14.6,100.09c.03.95.06,1.72.07,2.25l-2.73.23c-.05-.55-.12-1.31-.2-2.23-.09-.95-.19-2.05-.3-3.24-.04-.58-.13-1.23-.14-1.8-.02-.62-.04-1.25-.06-1.88-.05-2.52.03-5.05.15-6.95.12-1.9.25-3.16.25-3.16,0,0-.25,1.24-.55,3.13-.3,1.88-.61,4.41-.79,6.95-.04.64-.08,1.27-.12,1.9-.04.67-.01,1.25-.02,1.86,0,1.19,0,2.3,0,3.25,0,.96,0,1.76,0,2.31l-2.92.24c-.07-.57-.17-1.4-.27-2.39-.2-1.97-.37-4.61-.42-7.26-.05-2.65.04-5.3.17-7.29.13-1.99.27-3.31.27-3.31,0,0-.26,1.31-.57,3.29-.31,1.98-.63,4.63-.82,7.3-.19,2.67-.25,5.35-.22,7.36.01,1.03.03,1.88.06,2.46l-3.25.27c-.21-2.57-.32-5.13-.32-7.63C1.87,53.17,30.14,16.1,72.43,2.89l-1.85,3.88c-.53.21-1.57.62-2.93,1.2-1.97.83-4.56,2.03-7.07,3.35-2.51,1.31-4.96,2.74-6.74,3.87-1.79,1.12-2.95,1.92-2.95,1.92,0,0,1.22-.7,3.1-1.68,1.87-.98,4.42-2.2,7.01-3.31,2.59-1.1,5.24-2.08,7.24-2.75.48-.16.91-.3,1.31-.43l-1.83,3.84-.06-.13s-3.77,1.74-7.32,3.81c-3.57,2.04-6.9,4.39-6.9,4.39,0,0,3.59-1.98,7.34-3.6,2.21-.98,4.46-1.83,5.93-2.37l-1.65,3.45.23.15c-1.09.6-2.56,1.43-3.99,2.32-2.79,1.7-5.41,3.61-5.41,3.61,0,0,2.88-1.53,5.86-2.83,2-.89,4.03-1.66,5.15-2.07l2.49,1.59c-1.27.64-3.2,1.64-5.06,2.75-3.19,1.85-6.15,3.98-6.15,3.98,0,0,3.23-1.75,6.59-3.19,2.6-1.14,5.25-2.08,6.33-2.44l2.31,1.47c-1.47.67-3.65,1.71-5.76,2.9-3.65,1.99-7.02,4.36-7.02,4.36,0,0,3.63-1.99,7.44-3.56,2.85-1.21,5.79-2.18,7.07-2.58l2.15,1.37c-.32.13-.67.28-1.06.44-1.62.69-3.75,1.67-5.81,2.76-2.06,1.09-4.06,2.27-5.52,3.21-1.46.93-2.41,1.59-2.41,1.59,0,0,1.01-.57,2.56-1.35,1.55-.79,3.65-1.77,5.79-2.64,2.14-.87,4.32-1.64,5.98-2.16,1.02-.32,1.82-.56,2.3-.69l1.91,1.22c-17.6,5.56-31.94,17.01-40.87,31.64-.25.41-.48.82-.72,1.23-.19.33-.39.66-.58,1-.39.7-.77,1.4-1.14,2.11-.02.04-.05.09-.07.13-4.61,8.94-7.17,18.7-7.5,28.83l-.03.79h.01c-.01.5-.03,1-.03,1.51,0,1.73.07,3.5.21,5.29l-1.81.15c-.05-.45-.11-1.11-.19-1.92-.08-.76-.17-1.66-.26-2.61-.02-.24-.05-.48-.07-.73l-.02-.18v-.16s-.03-.38-.03-.38c-.02-.5-.04-1.01-.06-1.52-.14-4.07.24-8.16.24-8.16,0,0-.85,4.02-1.18,8.14-.04.51-.08,1.03-.12,1.54l-.02.38v.21s-.01.19-.01.19c0,.25,0,.49-.01.73-.01.96-.03,1.86-.04,2.62-.01.87-.02,1.56-.03,2.01l-2.04.17c-.05-.46-.11-1.07-.18-1.8-.08-.82-.18-1.77-.28-2.79-.04-.5-.12-1.06-.14-1.55-.02-.54-.04-1.08-.06-1.62-.15-4.36.28-8.73.28-8.73,0,0-.89,4.3-1.22,8.71-.04.55-.08,1.1-.11,1.64-.04.59-.02,1.08-.03,1.61,0,1.03-.02,1.99-.02,2.81,0,.77-.01,1.41-.02,1.88l-2.26.19c-.05-.5-.12-1.22-.2-2.09-.08-.85-.18-1.84-.28-2.91-.03-.27-.05-.54-.08-.81l-.03-.39-.02-.42c-.02-.56-.04-1.12-.06-1.69-.14-4.53.32-9.07.32-9.07,0,0-.92,4.48-1.25,9.05-.04.57-.08,1.14-.12,1.71l-.02.42v.44c0,.27-.01.55-.01.81,0,1.07-.02,2.06-.02,2.92,0,.92-.01,1.67-.02,2.17l-2.36.2c-.07-.52-.17-1.28-.29-2.2-.23-1.78-.44-4.13-.48-6.52-.13-4.77.36-9.56.36-9.56,0,0-.96,4.72-1.29,9.53-.2,2.4-.22,4.84-.16,6.65Zm1.02,3.96l3.2-.27c.14.75.54,2.91,1.06,5.04.63,2.64,1.43,5.22,1.43,5.22,0,0-.34-2.67-.5-5.35-.14-2.16-.17-4.31-.17-5.06l2.86-.24c.14.72.53,2.74,1.02,4.73.6,2.48,1.37,4.91,1.37,4.91,0,0-.3-2.52-.44-5.04-.12-2.02-.14-4.03-.14-4.75l2.69-.22c.18.94.5,2.56.9,4.17.59,2.47,1.35,4.89,1.35,4.89,0,0-.3-2.51-.42-5.01-.09-1.63-.11-3.25-.11-4.19l2.62-.22v-.12s.28-.22.28-.22c.31,2.19.72,4.35,1.08,5.97.38,1.7.68,2.81.68,2.81,0,0-.19-1.14-.39-2.86-.21-1.72-.4-4.01-.48-6.31,0-.1,0-.19-.01-.29l2.81-2.18c.08.71.18,1.43.3,2.15.31,2.19.72,4.38,1.09,6,.36,1.62.65,2.69.65,2.69,0,0-.18-1.09-.37-2.73-.19-1.64-.37-3.83-.44-6.04-.05-1.01-.07-2.01-.07-2.97l2.44-1.89c.14,1.59.32,3.18.57,4.75h0c.39,2.72.93,5.41,1.63,8.05-.4-2.69-.64-5.4-.72-8.1h0,0s0-.03,0-.04c-.08-1.94-.08-3.88,0-5.81l1.65-1.28h.22c.22,16.53,6.49,32.45,17.74,45.02l-4.4-.74c-.29-.33-.75-.86-1.3-1.52-.97-1.16-2.21-2.75-3.38-4.39-1.17-1.64-2.26-3.34-3.03-4.64-.78-1.3-1.26-2.18-1.26-2.18,0,0,.38.93,1,2.31.62,1.38,1.51,3.19,2.49,4.97.98,1.78,2.04,3.52,2.89,4.8.06.09.11.16.16.25l-2.71-.46c-.38-.47-2.13-2.62-3.76-4.86-.92-1.27-1.8-2.56-2.43-3.55-.63-.99-1.02-1.67-1.02-1.67,0,0,.28.73.76,1.8.47,1.07,1.16,2.49,1.89,3.88.78,1.5,1.61,2.97,2.22,4.01l-2.94-.49-.13-.17-.26.18c-.11-.14-.23-.29-.36-.46-.56-.73-1.3-1.73-2.01-2.74-1.43-2.02-2.72-4.14-2.72-4.14,0,0,.86,2.31,1.89,4.57.51,1.13,1.05,2.25,1.48,3.09.13.25.24.47.34.66l-2.05,1.46c-.11-.14-.23-.3-.36-.47-.6-.78-1.38-1.84-2.14-2.92-1.52-2.15-2.88-4.41-2.88-4.41,0,0,.94,2.45,2.06,4.84.56,1.2,1.14,2.39,1.6,3.27.13.25.25.47.35.66l-2.22,1.58c-.14-.17-.29-.37-.46-.59-.63-.82-1.45-1.93-2.24-3.07-1.59-2.26-3.02-4.64-3.02-4.64,0,0,1.01,2.56,2.2,5.07.59,1.25,1.22,2.49,1.71,3.42.16.3.31.57.43.79l-2.39,1.7c-.14-.18-.3-.39-.48-.62-.67-.87-1.54-2.05-2.37-3.26-1.68-2.4-3.2-4.92-3.2-4.92,0,0,1.09,2.71,2.38,5.36.64,1.32,1.32,2.63,1.84,3.61.17.31.32.58.45.81l-1.89,1.34c-8.8-12.8-14.34-27.53-16.08-42.72Zm164.04,46.58l2.32,1.65c-.35.48-.87,1.16-1.5,1.97-1.25,1.61-2.99,3.7-4.84,5.72-1.85,2.02-3.8,3.95-5.32,5.36-1.51,1.41-2.56,2.31-2.56,2.31,0,0,1.12-.81,2.76-2.1,1.64-1.28,3.76-3.07,5.8-4.95,2.04-1.88,3.98-3.86,5.39-5.39.72-.78,1.31-1.44,1.71-1.9l2.62,1.86c-19.61,24.36-49.27,38.32-81.52,38.32-12.09,0-23.82-1.96-34.79-5.7-18.28-6.23-34.47-17.39-46.72-32.62l2.62-1.86c.4.46.99,1.11,1.71,1.9,1.41,1.53,3.35,3.51,5.39,5.39,2.04,1.88,4.16,3.67,5.8,4.95,1.63,1.29,2.76,2.1,2.76,2.1,0,0-1.05-.9-2.56-2.31-1.52-1.4-3.47-3.34-5.32-5.36-1.85-2.02-3.59-4.11-4.84-5.72-.63-.81-1.15-1.49-1.5-1.97l2.32-1.65c.38.43.92,1.03,1.58,1.75,1.33,1.44,3.17,3.3,5.1,5.07,1.93,1.77,3.93,3.45,5.48,4.66,1.54,1.21,2.6,1.98,2.6,1.98,0,0-.99-.85-2.41-2.19-1.42-1.33-3.26-3.16-4.99-5.07-1.74-1.91-3.37-3.89-4.55-5.41-.58-.74-1.05-1.37-1.38-1.82l1.9-1.35h0s.25-.18.25-.18c.36.41.87.97,1.49,1.64,1.28,1.38,3.04,3.15,4.89,4.84,1.85,1.69,3.77,3.29,5.25,4.45,1.48,1.16,2.5,1.89,2.5,1.89,0,0-.94-.82-2.3-2.09-1.36-1.27-3.11-3.03-4.77-4.85-1.66-1.83-3.22-3.72-4.34-5.18-.54-.7-.97-1.28-1.29-1.71l1.98-1.41c.34.38.82.91,1.4,1.53,1.22,1.31,2.9,2.99,4.66,4.6,1.76,1.6,3.6,3.13,5.01,4.22,1.41,1.1,2.38,1.79,2.38,1.79,0,0-.9-.78-2.18-2-1.29-1.21-2.95-2.89-4.53-4.63-1.57-1.74-3.05-3.55-4.11-4.93-.5-.65-.9-1.19-1.2-1.59l1.82-1.29c.33.36.78.86,1.34,1.45,1.16,1.24,2.77,2.83,4.44,4.35,1.68,1.52,3.42,2.96,4.77,3.99,1.34,1.04,2.26,1.69,2.26,1.69,0,0-.85-.74-2.07-1.9-1.22-1.16-2.8-2.75-4.28-4.4-1.49-1.65-2.89-3.37-3.89-4.69-.47-.61-.85-1.13-1.13-1.51l1.67-1.18c.31.34.72.79,1.22,1.31,1.11,1.18,2.65,2.7,4.25,4.15,1.6,1.45,3.27,2.82,4.56,3.8,1.28.99,2.16,1.61,2.16,1.61,0,0-.81-.71-1.97-1.82-1.16-1.11-2.66-2.63-4.07-4.21-1.41-1.58-2.75-3.22-3.7-4.48-.42-.55-.76-1.02-1.02-1.38l1.49-1.06c12.76,15.7,31.31,25.38,51.79,27.2.02,0,.03,0,.05,0,1.1.1,2.2.17,3.3.22.17,0,.33.01.5.02,1.08.04,2.16.07,3.25.07s2.17-.03,3.25-.07c.17,0,.33-.01.5-.02,1.11-.05,2.21-.13,3.3-.22.02,0,.03,0,.05,0,20.48-1.82,39.03-11.49,51.79-27.2l1.49,1.06c-.26.36-.61.83-1.02,1.38-.95,1.26-2.29,2.9-3.7,4.48-1.42,1.58-2.91,3.1-4.07,4.21-1.16,1.11-1.97,1.82-1.97,1.82,0,0,.88-.62,2.16-1.61,1.29-.98,2.95-2.35,4.56-3.8,1.6-1.45,3.14-2.97,4.25-4.15.5-.53.91-.97,1.22-1.31l1.67,1.18c-.28.38-.66.9-1.13,1.51-1,1.32-2.4,3.03-3.89,4.69-1.49,1.65-3.06,3.25-4.28,4.4-1.22,1.16-2.07,1.9-2.07,1.9,0,0,.92-.65,2.26-1.69,1.34-1.03,3.09-2.47,4.77-3.99,1.68-1.52,3.28-3.12,4.44-4.35.55-.59,1.01-1.08,1.34-1.45l1.82,1.29c-.3.4-.7.95-1.2,1.59-1.06,1.39-2.54,3.19-4.11,4.93-1.57,1.74-3.23,3.41-4.53,4.63-1.29,1.22-2.18,2-2.18,2,0,0,.97-.69,2.38-1.79,1.41-1.09,3.25-2.62,5.01-4.22,1.76-1.6,3.44-3.29,4.66-4.6.58-.62,1.05-1.14,1.4-1.53l1.98,1.41c-.31.43-.75,1.01-1.29,1.71-1.12,1.46-2.68,3.35-4.34,5.18-1.66,1.83-3.41,3.58-4.77,4.85-1.36,1.28-2.3,2.09-2.3,2.09,0,0,1.02-.73,2.5-1.89,1.48-1.15,3.41-2.76,5.25-4.45,1.84-1.69,3.61-3.47,4.89-4.84.62-.67,1.13-1.23,1.49-1.64l2.15,1.52c-.33.45-.8,1.08-1.38,1.82-1.17,1.52-2.81,3.5-4.55,5.41-1.74,1.91-3.57,3.74-4.99,5.07-1.42,1.33-2.41,2.19-2.41,2.19,0,0,1.06-.77,2.6-1.98,1.55-1.21,3.55-2.89,5.48-4.66,1.92-1.77,3.77-3.63,5.1-5.07.66-.71,1.21-1.32,1.58-1.75Zm-2.3-3.86l-1.89-1.34c.13-.23.28-.5.45-.81.53-.97,1.2-2.29,1.84-3.61,1.29-2.65,2.38-5.36,2.38-5.36,0,0-1.51,2.52-3.2,4.92-.84,1.2-1.71,2.38-2.37,3.26-.18.23-.34.44-.48.62l-2.39-1.7c.12-.22.26-.49.43-.79.49-.92,1.12-2.16,1.71-3.42,1.19-2.5,2.2-5.07,2.2-5.07,0,0-1.43,2.37-3.02,4.64-.79,1.13-1.61,2.25-2.24,3.07-.17.22-.32.41-.46.59l-2.22-1.58c.1-.19.22-.41.35-.66.46-.88,1.05-2.07,1.6-3.27,1.12-2.39,2.06-4.84,2.06-4.84,0,0-1.37,2.26-2.88,4.41-.75,1.08-1.54,2.14-2.14,2.92-.13.17-.25.32-.36.47l-2.05-1.46c.1-.19.21-.41.34-.66.42-.83.97-1.96,1.48-3.09,1.03-2.26,1.89-4.57,1.89-4.57,0,0-1.29,2.12-2.72,4.14-.71,1.01-1.45,2.01-2.01,2.74-.13.17-.25.32-.36.46l-.26-.18-.13.17-2.94.49c.6-1.04,1.43-2.51,2.22-4.01.73-1.39,1.41-2.81,1.89-3.88.48-1.07.76-1.8.76-1.8,0,0-.39.68-1.02,1.67-.63.99-1.51,2.29-2.43,3.55-1.63,2.24-3.38,4.4-3.76,4.86l-2.71.46c.05-.08.11-.16.16-.25.84-1.28,1.91-3.02,2.89-4.8.98-1.78,1.87-3.59,2.49-4.97.62-1.38,1-2.31,1-2.31,0,0-.48.89-1.26,2.18-.77,1.3-1.86,3-3.03,4.64-1.17,1.64-2.41,3.23-3.38,4.39-.55.66-1,1.19-1.3,1.52l-4.4.74c11.25-12.58,17.53-28.49,17.75-45.02h.22l1.65,1.28c.08,1.93.08,3.87,0,5.81,0,.01,0,.02,0,.03h0s0,.01,0,.01c-.08,2.7-.32,5.4-.72,8.1.7-2.65,1.24-5.34,1.63-8.05h0c.24-1.57.43-3.16.57-4.75l2.44,1.89c0,.95-.02,1.96-.07,2.97-.07,2.2-.25,4.39-.44,6.04-.19,1.64-.37,2.73-.37,2.73,0,0,.29-1.07.65-2.69.37-1.62.78-3.81,1.09-6,.11-.72.21-1.45.3-2.15l2.81,2.18c0,.1,0,.19-.01.29-.08,2.3-.28,4.59-.48,6.31-.2,1.72-.39,2.86-.39,2.86,0,0,.3-1.12.68-2.81.36-1.62.77-3.78,1.08-5.97l.29.22v.12s2.61.22,2.61.22c0,.94-.02,2.56-.11,4.19-.12,2.51-.42,5.01-.42,5.01,0,0,.76-2.42,1.35-4.89.4-1.61.72-3.23.9-4.17l2.69.22c0,.72-.01,2.73-.14,4.75-.13,2.52-.44,5.04-.44,5.04,0,0,.76-2.43,1.37-4.91.5-1.99.89-4.01,1.02-4.73l2.86.24c0,.75-.03,2.9-.17,5.06-.16,2.67-.5,5.35-.5,5.35,0,0,.8-2.58,1.43-5.22.52-2.13.93-4.28,1.06-5.04l3.2.27c-1.74,15.19-7.29,29.92-16.08,42.72Zm29.52-43.39l-3.25-.27c.02-.59.05-1.44.06-2.46.02-2.01-.03-4.69-.22-7.36-.19-2.67-.51-5.32-.82-7.3-.3-1.98-.57-3.29-.57-3.29,0,0,.14,1.32.27,3.31.13,1.99.22,4.64.17,7.29-.04,2.65-.22,5.29-.42,7.26-.1.99-.19,1.82-.27,2.39l-2.92-.24c0-.56,0-1.35,0-2.31,0-.95,0-2.06,0-3.25-.01-.61.02-1.18-.02-1.86-.04-.63-.08-1.26-.12-1.9-.18-2.54-.5-5.07-.79-6.95-.29-1.88-.55-3.13-.55-3.13,0,0,.14,1.26.25,3.16.12,1.89.2,4.42.15,6.95-.02.63-.04,1.26-.06,1.88-.01.57-.1,1.22-.14,1.8-.11,1.18-.21,2.29-.3,3.24-.08.92-.15,1.68-.2,2.23l-2.73-.23c.02-.53.04-1.3.07-2.25.06-1.8.04-4.25-.16-6.65-.34-4.82-1.29-9.53-1.29-9.53,0,0,.49,4.78.36,9.56-.03,2.39-.24,4.74-.48,6.52-.12.92-.22,1.68-.29,2.2l-2.36-.2c0-.5,0-1.25-.02-2.17,0-.85-.01-1.85-.02-2.92,0-.27,0-.54,0-.81v-.44s-.03-.42-.03-.42c-.04-.56-.08-1.13-.12-1.71-.33-4.57-1.25-9.05-1.25-9.05,0,0,.45,4.54.32,9.07-.02.57-.04,1.13-.06,1.69l-.02.42-.03.39c-.03.27-.05.54-.08.81-.1,1.06-.2,2.06-.28,2.91-.08.87-.15,1.59-.2,2.09l-2.26-.19c0-.47,0-1.11-.02-1.88,0-.82-.01-1.78-.02-2.81-.01-.52.01-1.02-.03-1.61-.04-.54-.08-1.09-.11-1.64-.33-4.4-1.22-8.71-1.22-8.71,0,0,.43,4.37.28,8.73-.02.54-.04,1.09-.06,1.62-.01.49-.09,1.05-.14,1.55-.1,1.02-.2,1.98-.28,2.79-.07.73-.13,1.34-.18,1.8l-2.04-.17c0-.45-.02-1.14-.03-2.01-.01-.77-.02-1.66-.04-2.62,0-.24,0-.48-.01-.73v-.19s-.01-.21-.01-.21l-.02-.38c-.04-.51-.08-1.02-.12-1.54-.33-4.11-1.18-8.14-1.18-8.14,0,0,.39,4.09.24,8.16-.02.51-.04,1.02-.06,1.52l-.02.38v.16s-.03.18-.03.18c-.02.25-.05.49-.07.73-.1.96-.19,1.85-.26,2.61-.08.81-.15,1.48-.19,1.92l-1.81-.15c.14-1.79.21-3.56.21-5.29,0-.5-.02-1.01-.03-1.51h.01l-.03-.79c-.34-10.14-2.89-19.9-7.51-28.85-.01-.02-.02-.05-.04-.07-.38-.73-.77-1.46-1.17-2.18-.17-.3-.35-.6-.52-.9-.26-.44-.51-.89-.78-1.33-8.93-14.63-23.27-26.07-40.86-31.63l1.91-1.22c.47.13,1.28.37,2.3.69,1.65.52,3.83,1.28,5.98,2.16,2.14.87,4.24,1.85,5.79,2.64,1.55.78,2.56,1.35,2.56,1.35,0,0-.94-.66-2.41-1.59-1.46-.94-3.46-2.12-5.52-3.21-2.06-1.09-4.19-2.07-5.81-2.76-.39-.16-.74-.31-1.06-.44l2.15-1.37c1.29.41,4.22,1.37,7.07,2.58,3.82,1.57,7.44,3.56,7.44,3.56,0,0-3.37-2.36-7.02-4.36-2.11-1.18-4.3-2.23-5.76-2.9l2.31-1.47c1.07.37,3.73,1.31,6.33,2.44,3.37,1.44,6.59,3.19,6.59,3.19,0,0-2.97-2.12-6.15-3.98-1.86-1.1-3.78-2.11-5.06-2.75l2.49-1.59c1.12.41,3.16,1.19,5.15,2.07,2.98,1.29,5.86,2.83,5.86,2.83,0,0-2.62-1.9-5.41-3.61-1.43-.89-2.9-1.72-3.99-2.32l.23-.15-1.65-3.45c1.48.53,3.72,1.39,5.93,2.37,3.75,1.62,7.34,3.6,7.34,3.6,0,0-3.33-2.35-6.9-4.39-3.55-2.07-7.32-3.81-7.32-3.81l-.06.13-1.83-3.84c.39.13.83.27,1.31.43,2,.67,4.65,1.65,7.24,2.75,2.59,1.1,5.14,2.33,7.01,3.31,1.88.98,3.1,1.68,3.1,1.68,0,0-1.16-.79-2.95-1.92-1.79-1.13-4.23-2.55-6.74-3.87-2.51-1.31-5.1-2.51-7.07-3.35-1.36-.58-2.4-.99-2.93-1.2l-1.85-3.88c42.29,13.21,70.56,50.28,70.56,92.86,0,2.49-.11,5.06-.32,7.63Z"/>
      <path class="cls-4" d="m19.18,77.16c.25.21.42.44.49.69.08.25.05.58-.07.98.44-.19.83-.25,1.16-.16.29.08.64.28,1.06.62l5.5,4.43.09-.11c-.65-.58-1.01-1.39-1.08-2.43-.07-1.04.15-2.42.67-4.14-.17.18-.4.3-.67.34-.28.05-.55.04-.81-.04-.2-.05-.37-.13-.5-.24l-.53-.43,1.68-5.56.61-.04c.22-.01.42,0,.61.06.16.04.35.14.56.28.21.14.38.23.51.26.06.02.13.03.2.04.07.01.16.01.29,0,.13-.01.24-.04.34-.09.1-.05.2-.14.31-.27.11-.13.19-.3.25-.5.08-.26.15-.69.22-1.3.07-.6.14-1.04.22-1.31.27-.91.86-1.45,1.75-1.63l-.03-.09-1.7.23c.3-.6.58-1.13.83-1.58.18-.33.34-.62.48-.85.21-.34.57-.86,1.1-1.56-.3,0-.57-.07-.81-.18-.32-.16-.56-.39-.71-.68l-1.54-2.97,3.33-.53c.23-.04.48,0,.74.14.38.19.57.45.56.79l1.94-3.59c.18-.34.33-.6.45-.8.12-.19.28-.39.49-.6.21-.21.42-.35.63-.41l-.04-.11-.43.09,7.73-9.34s.11-.17.43-.37c.01,0,.03-.02.04-.03.28-.16.72-.33,1.38-.43-.32-.2-.78-.46-1.4-.8-.94-.51-1.67-.96-2.19-1.36-.48-.36-.89-.74-1.24-1.13.16.58.18,1.18.05,1.8-.13.62-.38,1.15-.75,1.59l-3.39,4.09-1.43-1.08,3.65-4.41-2.65-1.98-3.65,4.41-1.65-1.24,3.56-4.3c.35-.42.74-.75,1.18-.97.43-.22.94-.36,1.53-.4l-3.62-2.71-6.04,7.3c-1.27,1.53-2.35,2.69-3.24,3.49.5-.3,1.05-.43,1.66-.4.6.03,1.14.22,1.6.57l3.2,2.4c.19.14.33.26.42.36.09.1.14.2.14.3,0,.1-.02.19-.06.26-.04.07-.12.18-.23.31.31-.07.67-.05,1.08.07.41.12.8.31,1.16.58l1.68,1.26c.36.27.64.6.84,1.01.19.38.23.77.15,1.17l-6.28,1.26c-.55.11-.98.08-1.3-.07-.17-.08-.27-.2-.31-.35-.3.55-.57.85-.81.9l-.32.06-2.63-5.54c-.34-.71-.54-1.33-.6-1.87-.06-.53-.02-.93.12-1.2l-.12-.12c-.16.29-.42.83-.79,1.61-.37.78-.68,1.41-.94,1.89-.13.23-.24.43-.33.6-.09.16-.2.33-.3.48-.11.16-.19.27-.24.35-.05.08-.15.21-.31.41-.15.2-.27.35-.34.45.22,0,.45.07.69.19.35.17.61.43.79.77l1.38,2.73-4.77.81c-.59.1-1.03.1-1.33.02.45.81.31,1.32.31,1.32,0,.11-.05.22-.11.34l-1.3,2.4,8.65-1.65.15.31c.1.22,0,.6-.3,1.15.15-.06.31-.05.48.03.31.15.58.47.81.96l1.56,3.37c.22.46.37.81.48,1.06.04.09.05.2.08.3l-3.88.53c-.54.07-.95.07-1.24-.01-.33-.09-.63-.33-.9-.71-.12.4-.28.68-.49.86-.21.18-.47.29-.81.34l-8.19,1.12v.06c.29.08.5.21.62.4.12.19.15.41.07.66l-.22.75c-.15.49-.42,1.13-.81,1.9-.39.78-.64,1.31-.74,1.6.26-.29.57-.49.91-.62.35-.13.7-.14,1.06-.04.26.07.51.21.75.4l3.75,3.02Zm.93-5.28c.2-.02.43,0,.69.07.18.05.33.11.45.18.05-.14.1-.24.15-.3.05-.06.13-.1.24-.11l1.15-.12-.91,3-3.37-2.54,1.59-.18Z"/>
      <path class="cls-4" d="m175.28,37.02l-2.54-2.95c.13.42.09.84-.12,1.26-.2.42-.48.76-.82,1.03l-3.26,2.54c-.19.15-.34.25-.46.31-.12.06-.23.08-.34.06-.1-.02-.19-.06-.25-.11-.07-.06-.16-.15-.27-.28,0,.3-.1.63-.31.99-.21.36-.49.68-.85.95l-1.65,1.29c-.35.27-.75.46-1.21.56-.24.05-.48.06-.71.03l1.27-4.18c.15-.49.33-.85.52-1.07.22-.25.57-.41,1.05-.48-.33-.27-.54-.53-.62-.78-.08-.25-.08-.53.01-.84l2.3-7.57h-.06c-.19.2-.4.32-.63.35-.23.03-.45-.04-.66-.21l-.62-.5c-.41-.33-.9-.83-1.49-1.49-.58-.66-.99-1.09-1.23-1.3.17.34.24.69.21,1.04-.02.35-.16.66-.4.94-.18.2-.41.36-.69.49l-4.44,2.01c-.3.13-.59.18-.87.14-.28-.04-.58-.19-.91-.46,0,.46-.11.82-.33,1.07-.19.22-.54.44-1.02.66l-6.5,2.94.07.13c.82-.32,1.74-.3,2.77.06,1.02.36,2.25,1.12,3.68,2.28-.1-.22-.12-.46-.05-.73.07-.26.19-.49.37-.69.13-.15.28-.26.44-.34l.63-.28,4.63,3.75-.22.54c-.08.2-.18.36-.31.51-.11.12-.27.25-.49.37-.22.12-.37.23-.46.33-.04.05-.08.1-.12.15-.04.05-.08.14-.12.25-.04.11-.06.22-.05.33,0,.11.05.23.13.38.08.15.2.29.37.42.22.18.6.42,1.15.72.55.3.94.55,1.16.73.76.61,1.04,1.34.84,2.19h.1s.45-1.47.45-1.47l5.81,6.74c.66.76,1.13,1.56,1.41,2.39.53-.41,1.37-.97,2.53-1.68,1.09-.67,1.88-1.19,2.38-1.57-.47.11-.88.13-1.22.1-.08,0-.14,0-.23,0-.08-.01-.15-.05-.23-.07-.08-.02-.16-.05-.23-.07-.03-.01-.07-.01-.1-.03-.02,0-.04-.02-.05-.03-.39-.17-.58-.38-.58-.38h0c-.23-.19-.47-.41-.7-.69l-2.97-3.45,6.64-5.19h0s1.02-.97,2.81-.34c-.24-.2-.56-.44-.97-.71-.64-.41-1.1-.79-1.38-1.12Zm-13.58-4.91c-.06.18-.18.37-.35.57-.12.14-.24.24-.36.32.11.11.19.19.23.26.04.07.04.15,0,.25l-.35,1.05-2.5-2.02,3.82-1.87-.48,1.45Z"/>
      <path class="cls-4" d="m92.65,181.28c.08-.38.35-.73.8-1.06-.5-.1-.87-.25-1.1-.47-.23-.21-.4-.5-.48-.87l-2.11-9.03-.07.02c-.07.32-.21.56-.43.72-.22.15-.49.2-.8.14l-.94-.18c-.62-.12-1.42-.37-2.41-.73-.99-.37-1.67-.6-2.03-.68.37.27.65.59.84.96.18.38.23.77.14,1.18-.06.3-.21.59-.43.88l-3.38,4.45c-.23.3-.5.51-.81.61-.31.11-.71.11-1.21.01.28.48.38.9.3,1.28-.07.33-.29.74-.66,1.23l-4.96,6.52.15.09c.66-.77,1.62-1.25,2.89-1.42,1.27-.17,2.98-.05,5.15.38-.24-.17-.4-.41-.48-.72-.09-.3-.1-.61-.03-.91.05-.22.13-.42.25-.58l.48-.63,6.99,1.37.1.68c.04.24.03.47-.01.69-.04.18-.14.4-.29.64-.15.24-.25.44-.28.59-.02.07-.03.15-.04.22,0,.07,0,.18.03.32.03.14.07.26.14.37.07.11.19.21.36.32.17.11.38.19.63.24.33.07.87.11,1.61.13.75.02,1.29.06,1.63.13,1.14.22,1.86.83,2.17,1.8l.11-.04-1.69-7.24c-.14-.59-.17-1.05-.1-1.38Zm-9.02-1.9l2.82-3.98.36,1.75c.05.22.04.48-.03.78-.04.21-.1.38-.18.52.18.05.31.09.39.14.08.05.13.14.15.26l.25,1.27-3.77-.74Z"/>
      <path class="cls-4" d="m137.76,174.51c-.33-1.12-.85-2.09-1.56-2.91-.71-.82-1.55-1.46-2.53-1.91-.97-.45-2.08-.7-3.31-.77-1.23-.07-2.52.08-3.86.43l-9.68,2.56c.65.05,1.22.3,1.73.77.5.47.84,1,1.02,1.6l1.19,4.08c.08.26.12.47.14.62.01.15-.02.28-.09.37-.07.1-.15.16-.25.2-.09.04-.24.09-.44.14.34.14.67.4.97.78.31.39.53.82.68,1.32l.67,2.3c.14.49.16.99.06,1.51-.1.52-.36.95-.78,1.29l9.21-2.44c2.21-.58,3.95-1.55,5.21-2.9,1.26-1.35,1.92-2.9,1.95-4.67,0-.37.06-.72.19-1.05.13-.33.31-.71.57-1.13-.39.1-.7.23-.93.39-.03-.13-.08-.33-.16-.59Zm-5.18,4.22c-.61.86-1.59,1.48-2.96,1.84l-2.86.76-.92-3.14-.23-.79-.97-3.32,2.86-.76c1.35-.36,2.53-.32,3.52.12.99.44,1.65,1.22,1.98,2.33.33,1.11.19,2.1-.42,2.96Z"/>
      <path class="cls-4" d="m84,54.48c-1.01.49-1.73,1.37-1.98,2.42l-.81,3.43c-.29,1.22-1.5,2.06-2.81,1.94l-3.68-.32c-1.13-.1-2.23.28-3.03,1.04-.8.76-1.2,1.81-1.1,2.89l.34,3.5c.12,1.25-.76,2.4-2.04,2.68l-3.6.78c-1.1.24-2.03.92-2.55,1.88-.51.96-.55,2.08-.1,3.07l1.46,3.23c.52,1.15.06,2.5-1.07,3.15l-3.18,1.8c-.97.55-1.63,1.48-1.81,2.54-.18,1.06.15,2.14.9,2.95l2.44,2.64c.87.94.87,2.36,0,3.31l-2.44,2.64c-.75.81-1.07,1.89-.9,2.95.18,1.06.84,1.99,1.81,2.54l3.18,1.8c1.13.64,1.59,1.99,1.07,3.15l-1.46,3.23c-.45.99-.41,2.11.11,3.07.51.96,1.44,1.65,2.55,1.88l3.6.78c1.28.28,2.16,1.43,2.04,2.68l-.34,3.5c-.1,1.07.3,2.13,1.1,2.89.8.76,1.91,1.15,3.03,1.04l3.68-.32c1.31-.11,2.52.72,2.81,1.94l.81,3.43c.25,1.05.97,1.93,1.98,2.42,1.01.49,2.18.53,3.22.1l3.39-1.39c1.21-.5,2.63-.06,3.3,1.02l1.89,3.02c.58.93,1.55,1.55,2.67,1.72.2.03.4.04.6.04.91,0,1.8-.31,2.5-.9l2.78-2.32c.99-.83,2.48-.83,3.47,0l2.78,2.32c.85.71,1.98,1.02,3.1.85,1.12-.17,2.09-.8,2.67-1.72l1.89-3.02c.67-1.08,2.09-1.52,3.3-1.02l3.39,1.39c1.04.43,2.21.39,3.22-.1,1.01-.49,1.73-1.37,1.98-2.42l.81-3.43c.29-1.22,1.5-2.06,2.81-1.94l3.68.32c1.13.1,2.23-.28,3.03-1.04.8-.76,1.2-1.81,1.1-2.89l-.34-3.5c-.12-1.25.76-2.4,2.04-2.68l3.6-.78c1.1-.24,2.03-.92,2.55-1.88.51-.96.55-2.08.1-3.07l-1.46-3.23c-.52-1.15-.06-2.5,1.07-3.15l3.18-1.8c.97-.55,1.63-1.48,1.81-2.54.18-1.06-.15-2.14-.9-2.95l-2.44-2.64c-.87-.94-.87-2.36,0-3.31l2.44-2.64c.75-.81,1.07-1.89.9-2.95-.18-1.06-.84-1.99-1.81-2.54l-3.18-1.8c-1.13-.64-1.59-1.99-1.07-3.15l1.46-3.23c.45-.99.41-2.11-.11-3.07-.51-.96-1.44-1.65-2.55-1.88l-3.6-.78c-1.28-.28-2.16-1.43-2.04-2.68l.34-3.5c.1-1.07-.3-2.13-1.1-2.89-.8-.76-1.91-1.14-3.03-1.04l-3.68.32c-1.31.12-2.52-.72-2.81-1.94l-.81-3.43c-.25-1.05-.97-1.93-1.98-2.42-1.01-.49-2.18-.53-3.22-.1l-3.39,1.39c-1.21.5-2.63.06-3.3-1.02l-1.89-3.02c-.58-.93-1.55-1.55-2.67-1.72-1.12-.17-2.25.14-3.1.85l-2.78,2.32c-.99.83-2.48.83-3.47,0l-2.78-2.32c-.85-.71-1.98-1.02-3.1-.85-1.12.17-2.09.8-2.67,1.72l-1.89,3.02c-.67,1.08-2.09,1.52-3.3,1.02l-3.39-1.39c-1.04-.43-2.21-.39-3.22.1Zm-9.39,8.58l3.68.32c1.9.17,3.63-1.04,4.05-2.8l.81-3.43c.15-.64.56-1.17,1.13-1.53l4.1,7.66c-3.42,1.7-6.54,3.86-9.26,6.41l-6.39-6.09c.53-.4,1.2-.61,1.88-.55Zm31.48-2.8c20.56,0,37.28,15.92,37.28,35.49s-16.72,35.49-37.28,35.49-37.28-15.92-37.28-35.49,16.72-35.49,37.28-35.49Zm-40.55,13.66l3.6-.78c1.85-.4,3.12-2.06,2.94-3.86l-.34-3.5c-.06-.65.15-1.28.58-1.79l6.39,6.09c-2.68,2.59-4.95,5.56-6.74,8.81l-8.05-3.9c.37-.54.94-.93,1.61-1.07Zm-5.1,13l3.18-1.8c1.63-.92,2.3-2.87,1.55-4.53l-1.46-3.23c-.27-.6-.27-1.26-.03-1.87l8.05,3.9c-1.7,3.22-2.91,6.7-3.55,10.36l-8.91-1.34c.18-.62.59-1.16,1.18-1.49Zm-1.27,15.63c-.03-.64.18-1.28.64-1.77l2.44-2.64c1.25-1.36,1.25-3.41,0-4.77l-2.44-2.64c-.45-.49-.67-1.12-.64-1.77l8.91,1.34c-.28,1.78-.43,3.6-.43,5.45s.15,3.67.43,5.45l-8.91,1.34Zm4.53,11.6l1.46-3.23c.75-1.66.08-3.61-1.55-4.53l-3.18-1.8c-.59-.33-1-.87-1.18-1.49l8.91-1.34c.64,3.67,1.85,7.15,3.55,10.36l-8.05,3.9c-.24-.6-.24-1.27.03-1.87Zm8.05,11.57l.34-3.5c.17-1.8-1.09-3.46-2.94-3.86l-3.6-.78c-.67-.14-1.23-.54-1.61-1.07l8.05-3.9c1.78,3.25,4.06,6.22,6.74,8.81l-6.4,6.09c-.42-.5-.64-1.14-.58-1.79Zm11.41,8.64l-.81-3.43c-.42-1.76-2.16-2.97-4.05-2.8l-3.68.32c-.69.06-1.35-.15-1.88-.55l6.4-6.09c2.72,2.55,5.84,4.72,9.26,6.41l-4.1,7.66c-.57-.35-.98-.89-1.13-1.53Zm15.22,5.98c-.65-.17-1.22-.56-1.57-1.12l-1.89-3.02c-.7-1.12-1.97-1.77-3.27-1.77-.5,0-1.01.09-1.49.29l-3.39,1.39c-.63.26-1.33.26-1.96.03l4.1-7.66c3.38,1.61,7.04,2.77,10.89,3.38l-1.41,8.49Zm12.99-.52l-2.78-2.32c-1.43-1.19-3.58-1.19-5.01,0l-2.78,2.32c-.52.43-1.18.64-1.86.61l1.41-8.48c1.87.27,3.78.41,5.73.41s3.86-.14,5.73-.41l1.41,8.48c-.68.03-1.34-.17-1.86-.61Zm14.04-3.71l-3.39-1.39c-1.74-.71-3.79-.08-4.76,1.47l-1.89,3.02c-.35.56-.92.95-1.57,1.12l-1.41-8.49c3.85-.61,7.51-1.76,10.89-3.38l4.1,7.66c-.63.23-1.33.23-1.96-.03Zm12.15-7.66l-3.68-.32c-1.9-.17-3.63,1.04-4.05,2.8l-.81,3.43c-.15.64-.56,1.17-1.13,1.53l-4.1-7.66c3.42-1.7,6.54-3.86,9.26-6.41l6.4,6.09c-.53.4-1.19.61-1.88.55Zm9.07-10.86l-3.6.78c-1.85.4-3.12,2.06-2.94,3.86l.34,3.5c.06.65-.15,1.28-.58,1.79l-6.4-6.09c2.68-2.59,4.95-5.56,6.74-8.81l8.05,3.9c-.37.54-.94.93-1.61,1.07Zm5.1-13l-3.18,1.8c-1.63.92-2.3,2.87-1.55,4.53l1.46,3.23c.27.6.27,1.26.03,1.87l-8.05-3.9c1.7-3.22,2.91-6.7,3.55-10.36l8.91,1.34c-.18.62-.59,1.16-1.18,1.49Zm1.27-15.63c.03.64-.18,1.28-.64,1.77l-2.44,2.64c-1.25,1.36-1.25,3.41,0,4.77l2.44,2.64c.45.49.67,1.12.64,1.77l-8.91-1.34c.28-1.78.43-3.6.43-5.45s-.15-3.67-.43-5.45l8.91-1.34Zm-4.53-11.6l-1.46,3.23c-.75,1.66-.08,3.61,1.55,4.53l3.18,1.8c.59.33,1,.87,1.18,1.49l-8.91,1.34c-.64-3.67-1.85-7.15-3.55-10.36l8.05-3.9c.24.6.24,1.27-.03,1.87Zm-8.05-11.57l-.34,3.5c-.17,1.8,1.09,3.46,2.94,3.86l3.6.78c.67.14,1.23.54,1.61,1.07l-8.05,3.9c-1.78-3.25-4.06-6.22-6.74-8.81l6.39-6.09c.42.5.64,1.13.58,1.79Zm-11.41-8.64l.81,3.43c.42,1.76,2.15,2.97,4.05,2.8l3.68-.32c.68-.06,1.35.15,1.88.55l-6.39,6.09c-2.72-2.55-5.84-4.72-9.26-6.41l4.1-7.66c.57.35.98.89,1.13,1.53Zm-15.22-5.98c.65.17,1.22.56,1.57,1.12l1.89,3.02c.97,1.55,3.02,2.19,4.76,1.47l3.39-1.39c.63-.26,1.33-.26,1.96-.03l-4.1,7.66c-3.38-1.61-7.04-2.77-10.89-3.38l1.41-8.49Zm-12.99.52l2.78,2.32c1.43,1.19,3.58,1.19,5.01,0l2.78-2.32c.52-.43,1.18-.64,1.86-.61l-1.41,8.48c-1.87-.27-3.78-.41-5.73-.41s-3.86.14-5.73.41l-1.41-8.48c.68-.03,1.34.17,1.86.61Zm-14.04,3.71l3.39,1.39c1.74.72,3.79.08,4.76-1.47l1.89-3.02c.35-.56.92-.95,1.57-1.12l1.41,8.49c-3.85.61-7.51,1.76-10.89,3.38l-4.1-7.66c.63-.23,1.33-.23,1.96.03Z"/>
      <path class="cls-4" d="m72.19,93.6c.01.07-.05.14-.1.19,0,0,0,0,0,.01.1.05.19.1.29.16.06.03.12.07.19.1.33.18.66.36,1.01.48.05.02.11.04.16.07.06.05.09.12.13.19.01.02.03.04.04.06.35.2.73.41,1.13.62.2.08.4.16.6.24.06.02.13.05.18.09.05.04.08.09.13.13.02.02.04.03.05.05.32.16.64.33.97.49.27.12.54.24.81.36.12.05.25.11.37.16.94.41,1.88.83,2.9,1.02.08.02.16.03.24.06.11.04.21.11.32.16.18.07.39.07.58.11-.96-2.01-.49-4.24.39-6.17-.03-.02.16-.4.21-.45.41-.85.77-1.39,1.24-2.06.08-.27.17-.53.38-.73.09-.09.2-.15.31-.21.6-.77,1.08-1.27,1.21-1.4l1.21-1.16s.1.08.15.11c.22.17.52.19.72,0,0,0,.07-.05.2-.14l.32.3c.08.08.33.17.33.17,0,0,7.12,7.1,10.48,9.98.18.15.67-.04.67-.04,0,0,1.43,1.37,3.55,3.42-.04.04-.09.08-.13.12-.18-.16-.43-.19-.56-.06,0,0-1.69,1.39-3.56,3.39-.1.11-.09.28,0,.43-3.88,3.55-7.81,7.17-10.46,9.61-.18-.15-.35-.22-.4-.17,0,0-.89.58-1.69,1.61-.04.05.03.19.16.35-.81.75-1.27,1.18-1.27,1.18-.78.74-.65,2.08.29,2.98.94.9,2.34,1.02,3.13.28.11-.11.68-.74,1.08-1.23.02-.03.05-.06.07-.08.14.09.25.13.3.1,1.08-.76,1.62-1.68,1.62-1.68.05-.05-.03-.21-.18-.39.18-.19.36-.39.54-.58,2.35-2.43,5.98-6.03,9.49-9.45.15.07.3.06.4-.02,2.09-1.77,3.5-3.44,3.5-3.44.09-.09.1-.23.04-.37.05-.05.09-.09.14-.13.05.05.09.09.14.13-.06.14-.05.28.04.37,0,0,1.4,1.67,3.5,3.44.1.08.25.09.4.02,3.51,3.43,7.15,7.02,9.49,9.45.18.19.36.38.54.58-.16.18-.24.34-.18.39,0,0,.54.92,1.62,1.68.05.03.16,0,.3-.1.02.03.05.06.07.08.4.49.97,1.12,1.08,1.23.78.74,2.18.62,3.13-.28.94-.9,1.08-2.23.29-2.98,0,0-.47-.43-1.27-1.18.13-.16.2-.3.16-.35-.8-1.03-1.69-1.61-1.69-1.61-.05-.05-.22.02-.4.17-2.65-2.44-6.58-6.06-10.46-9.61.1-.15.1-.32,0-.43-1.86-1.99-3.56-3.39-3.56-3.39-.13-.12-.37-.09-.56.06-.04-.04-.09-.08-.13-.12,2.13-2.05,3.55-3.42,3.55-3.42,0,0,.49.19.67.04,3.36-2.88,10.48-9.98,10.48-9.98,0,0,.25-.1.33-.17l.32-.3c.13.09.2.14.2.14.2.19.5.17.72,0,.05-.04.1-.08.15-.11l1.21,1.16c.13.12.61.63,1.21,1.4.11.05.22.12.31.21.21.2.3.46.38.73.47.68.83,1.21,1.24,2.06.06.05.24.42.21.45.89,1.93,1.36,4.16.39,6.17.19-.03.4-.03.58-.11.11-.04.21-.12.32-.16.08-.03.16-.04.24-.06,1.01-.19,1.96-.61,2.9-1.02.12-.05.25-.11.37-.16.27-.12.54-.24.81-.36.33-.16.65-.33.97-.49.02-.02.04-.03.05-.05.04-.04.08-.09.13-.13.05-.04.12-.07.18-.09.2-.08.4-.16.6-.24.4-.22.78-.43,1.13-.62.01-.02.03-.04.04-.06.04-.07.07-.14.13-.19.04-.04.1-.05.16-.07.36-.12.69-.3,1.01-.48.06-.03.12-.07.19-.1.1-.05.19-.1.29-.16,0,0,0,0,0-.01-.05-.06-.11-.12-.1-.19.01-.07.09-.11.17-.11l-6.62-6.31c-.22-.04-.96-.76-.83-.79l-2.91-2.77c-.12-.07-.22-.16-.29-.27l-.79-.75c.1-.18.08-.42-.09-.57,0,0-.23-.26-.62-.66.16-.12.4-.11.55.03l.16.15c.1.1.26.1.36,0l.5-.48c.1-.1.1-.25,0-.35,0,0-1.15-1.43-3.09-2.94-.11-.09-.26-.1-.36,0l-.5.48c-.1.1-.1.25,0,.35l.16.15c.15.14.16.36.04.52-.23-.2-.46-.39-.7-.58-.18-.14-.41-.18-.6-.08l-.02-.02-.04-.02c-.62-.36-1.26-.69-1.91-1-.45-.21-.97-.48-1.24-.67-.06-.04-.16-.11-.3-.19-.24,0-.46-.19-.64-.35,0,0-.01-.01-.02-.02-1.38-.72-3.92-1.74-6.08-1.18,0,0,.16.12.42.32.06.01.12.03.17.06.22.11.38.3.55.47.07.07.15.15.22.22.26.21.53.43.8.65.16.12.33.24.5.36.9.64,1.84,1.38,2.16,2.39.61.8,1.4,1.88,1.69,2.5l-.13.13c-.2.19-.17.47,0,.69.05.06.1.12.15.18l-.32.3c-.11.11-.14.27-.24.55-1.08.99-7.55,6.91-10.32,9.84-.13.13-.14.33-.06.5-1,.89-2.3,2.05-3.76,3.38-1.46-1.33-2.76-2.49-3.76-3.38.08-.17.07-.37-.06-.5-2.77-2.92-9.24-8.85-10.32-9.84-.1-.29-.13-.45-.24-.55l-.32-.3c.05-.06.1-.12.15-.18.17-.21.2-.5,0-.69l-.13-.13c.29-.62,1.08-1.7,1.69-2.5.31-1.02,1.26-1.75,2.16-2.39.17-.12.33-.24.5-.36.27-.22.54-.44.8-.65.08-.07.15-.14.22-.22.17-.17.33-.36.55-.47.05-.03.11-.05.17-.06.26-.2.42-.32.42-.32-2.16-.56-4.69.46-6.08,1.18,0,0-.01.01-.02.02-.18.17-.4.34-.64.35-.13.08-.24.15-.3.19-.27.19-.79.45-1.24.67-.65.31-1.29.64-1.91,1l-.04.02-.02.02c-.19-.09-.43-.06-.6.08-.24.19-.47.39-.7.58-.12-.16-.11-.38.04-.52l.16-.15c.1-.1.1-.25,0-.35l-.5-.48c-.1-.1-.25-.09-.36,0-1.94,1.51-3.09,2.94-3.09,2.94-.1.1-.1.25,0,.35l.5.48c.1.1.26.1.36,0l.16-.15c.15-.14.39-.15.55-.03-.39.4-.62.66-.62.66-.16.16-.19.39-.09.57l-.79.75c-.07.11-.17.2-.29.27l-2.91,2.77c.13.03-.61.75-.83.79l-6.62,6.31c.08,0,.15.04.17.11Z"/>
      <path class="cls-4" d="m115.58,186.53c-.08-.25-.13-.48-.15-.69-.03-.2-.05-.44-.05-.7l-.07-2.38c-.01-.51.06-.99.24-1.45.17-.45.4-.79.69-1.02-.21,0-.36,0-.47-.01-.1-.01-.2-.06-.3-.13-.1-.07-.16-.18-.2-.33-.04-.15-.06-.36-.06-.63l-.14-4.7c-.01-.51.09-1,.32-1.48.23-.48.59-.83,1.09-1.07l-7.41.19c.5.19.88.53,1.14,1.01.26.48.4.97.41,1.46l.18,6.36-8.06-8.67-5.7.15c.5.19.88.53,1.14,1.01.26.48.4.97.41,1.46l.14,4.7c0,.27,0,.48-.03.64-.03.15-.09.27-.18.34-.09.08-.19.12-.29.14-.1.02-.26.03-.46.04.3.21.55.54.75.98.2.44.31.92.32,1.43l.07,2.38c.01.51-.09,1-.32,1.48-.23.48-.59.83-1.08,1.07l1.76-.05c2.03-.05,3.75.38,5.16,1.31l.05-.1c-.19-.12-.35-.26-.49-.43-.13-.17-.24-.33-.31-.49-.07-.16-.13-.36-.17-.6-.04-.24-.07-.45-.09-.64-.01-.19-.02-.43-.03-.72l-.21-7.27,6.37,6.82s.09.11.17.29c.02.05.04.09.06.15.18.54.21,1.54-1.21,2.72.06-.02.12-.03.19-.05.31-.1.61-.23.87-.37.27-.14.55-.29.84-.43.29-.14.64-.27,1.05-.37.41-.1.84-.16,1.3-.18l3.79-.1c-.26-.1-.47-.24-.64-.43-.17-.19-.3-.41-.37-.66Z"/>
      <path class="cls-4" d="m187.03,61.87c-.58.18-1.05.51-1.43.98-.38.47-.65,1.05-.81,1.73-.16.68-.23,1.44-.2,2.28.03.84.14,1.74.36,2.69.17.74.26,1.35.29,1.86.03.5,0,.86-.07,1.08-.08.22-.19.35-.34.4-.28.09-.62-.1-1.01-.58-.4-.47-.73-1.08-.99-1.83-.17-.47-.29-.94-.37-1.42-.08-.48-.11-.94-.09-1.39.02-.45.12-.85.3-1.21.18-.35.44-.62.78-.78l-3.81-2.16c.03.18,0,.45-.07.79-.08.35-.16.74-.26,1.19-.1.44-.17.94-.22,1.49-.05.55-.03,1.22.07,1.99.1.77.3,1.57.59,2.4.33.95.77,1.79,1.29,2.53.53.74,1.09,1.32,1.68,1.74.59.42,1.2.7,1.83.84.63.14,1.22.12,1.78-.06,2.4-.77,3.15-3.36,2.26-7.77-.21-1.03-.3-1.81-.25-2.34.04-.53.17-.82.39-.89.23-.07.51.08.83.46.32.38.59.88.81,1.5.2.55.32,1.08.37,1.58.05.5.05.94-.02,1.32-.06.37-.16.73-.27,1.07-.12.34-.24.65-.38.94-.13.29-.25.57-.36.83-.1.27-.17.54-.19.83,0,.04,0,.07,0,.11.2-.43.44-.73.67-.94.04-.04.09-.07.14-.11.16-.11.31-.19.46-.24,0,0,0,0,.02,0,0,0,.02,0,.03,0,.11-.04.22-.06.3-.07,0,0,0,0,.01,0,.19-.02.31,0,.31,0,.2.02.49.12.87.29.38.17.94.46,1.68.87l.12-.2c-.16-.1-.28-.23-.34-.41-.03-.09-.05-.19-.07-.29-.01-.11-.01-.25,0-.42,0-.17.02-.32.03-.43,0-.11.03-.31.07-.59.03-.28.06-.49.08-.63.01-.13.08-.46.2-1.02.12-.55.18-.95.2-1.2-.08.11-.16.17-.26.2-.07.02-.12,0-.15-.04-.08-.68-.25-1.4-.52-2.16-.31-.89-.72-1.68-1.23-2.38-.51-.7-1.04-1.26-1.61-1.66-.57-.4-1.16-.68-1.77-.82-.61-.14-1.18-.13-1.72.04Z"/>
      <path class="cls-4" d="m177.05,50.05c-.13.04-.25.04-.34,0-.1-.04-.17-.09-.23-.15-.05-.07-.13-.17-.21-.32-.05.3-.21.61-.49.92-.27.32-.61.59-1.01.8l-1.86.99c-.4.21-.83.33-1.3.35-.47.02-.9-.1-1.28-.36l6.17,10.49s.15.15.2.54c0,0,0,0,0,.01.04.31,0,.78-.21,1.45.32-.2.79-.53,1.41-.99.86-.63,1.58-1.1,2.15-1.41.53-.28,1.06-.5,1.58-.66-.63-.08-1.21-.3-1.76-.65-.55-.35-.97-.77-1.26-1.27l-2.67-4.55,1.59-.85,2.88,4.9,2.94-1.57-2.88-4.9,1.84-.98,2.81,4.78c.28.47.44.94.49,1.41.05.47-.02.97-.2,1.5l4.02-2.14-4.77-8.11c-1-1.7-1.71-3.1-2.14-4.19.1.55.02,1.09-.24,1.61-.26.52-.65.92-1.17,1.19l-3.55,1.89c-.21.11-.38.19-.51.23Z"/>
      <path class="cls-4" d="m40.11,35.69c.4.44.9.73,1.5.88.6.15,1.26.17,1.99.05.72-.12,1.49-.35,2.29-.7.81-.34,1.63-.79,2.48-1.35.65-.43,1.21-.75,1.69-.97.48-.21.84-.33,1.08-.35.24-.02.41.03.52.15.19.21.14.58-.17,1.11-.31.53-.77,1.05-1.39,1.57-.39.33-.8.61-1.23.86-.43.25-.87.46-1.31.61-.44.16-.87.22-1.28.2-.41-.02-.77-.15-1.06-.38l-.64,4.18c.17-.1.43-.18.8-.24.37-.06.78-.14,1.25-.23.47-.09.98-.21,1.54-.38.56-.16,1.19-.44,1.9-.82.71-.39,1.41-.86,2.1-1.44.79-.66,1.44-1.36,1.96-2.1.52-.75.86-1.46,1.04-2.14.18-.68.22-1.32.12-1.93-.1-.61-.35-1.12-.73-1.54-1.66-1.81-4.46-1.48-8.41.99-.92.58-1.64.95-2.17,1.12-.53.16-.86.16-1.01,0-.16-.17-.12-.47.12-.9.24-.43.62-.86,1.15-1.29.46-.38.93-.7,1.39-.94.47-.24.89-.4,1.28-.49.39-.09.77-.14,1.14-.17.37-.03.73-.04,1.06-.03.33,0,.65,0,.95,0,.23,0,.45-.05.68-.11-.39-.09-.69-.21-.94-.35,0,0-.01,0-.02,0-.07-.04-.13-.08-.19-.12-.07-.05-.14-.1-.2-.17-.01,0-.02-.02-.03-.03-.02-.02-.04-.04-.06-.06-.03-.03-.05-.07-.08-.1-.02-.02-.03-.04-.04-.06-.09-.13-.17-.25-.21-.39,0-.02,0-.04,0-.06-.05-.17-.04-.28-.04-.28h0c-.01-.15-.01-.33,0-.54.02-.4.08-1,.2-1.8l-.24-.03c-.03.18-.12.33-.27.45-.07.06-.16.12-.26.17-.1.05-.23.11-.41.16-.17.06-.32.1-.43.14-.11.03-.31.09-.6.17-.29.08-.5.14-.64.17-.13.04-.48.11-1.06.21-.58.11-.99.2-1.24.29.13.03.23.08.29.15.05.05.05.1.01.15-.63.33-1.27.76-1.9,1.28-.74.61-1.35,1.28-1.84,1.99-.49.71-.82,1.4-.99,2.05-.18.66-.22,1.28-.12,1.87.09.59.33,1.09.7,1.49Z"/>
    </g>
  </g>
</svg>